<?xml version="1.0" encoding="UTF-8" standalone="no"?>
<!DOCTYPE svg PUBLIC "-//W3C//DTD SVG 1.1//EN"
 "http://www.w3.org/Graphics/SVG/1.1/DTD/svg11.dtd">
<!-- Generated by graphviz version 12.1.2 (20240928.0832)
 -->
<!-- Title: public.room_members Pages: 1 -->
<svg width="735pt" height="633pt"
 viewBox="0.00 0.00 735.24 632.80" xmlns="http://www.w3.org/2000/svg" xmlns:xlink="http://www.w3.org/1999/xlink">
<g id="graph0" class="graph" transform="scale(1 1) rotate(0) translate(4 628.8)">
<title>public.room_members</title>
<polygon fill="white" stroke="none" points="-4,4 -4,-628.8 731.24,-628.8 731.24,4 -4,4"/>
<!-- public.room_members -->
<g id="node1" class="node">
<title>public.room_members</title>
<polygon fill="#efefef" stroke="none" points="46.2,-543 46.2,-578.6 347.16,-578.6 347.16,-543 46.2,-543"/>
<polygon fill="none" stroke="black" points="46.2,-543 46.2,-578.6 347.16,-578.6 347.16,-543 46.2,-543"/>
<text text-anchor="start" x="53.2" y="-556.4" font-family="Arial Bold" font-size="18.00">public.room_members</text>
<text text-anchor="start" x="215.67" y="-556.4" font-family="Arial" font-size="14.00">    </text>
<text text-anchor="start" x="246.78" y="-556.4" font-family="Arial" font-size="14.00" fill="#666666">[BASE TABLE]</text>
<polygon fill="none" stroke="black" points="46.2,-512.2 46.2,-543 347.16,-543 347.16,-512.2 46.2,-512.2"/>
<text text-anchor="start" x="53.2" y="-524.4" font-family="Arial" font-size="14.00">room_id </text>
<text text-anchor="start" x="107.67" y="-524.4" font-family="Arial" font-size="14.00" fill="#666666">[uuid]</text>
<polygon fill="none" stroke="black" points="46.2,-481.4 46.2,-512.2 347.16,-512.2 347.16,-481.4 46.2,-481.4"/>
<text text-anchor="start" x="53.2" y="-493.6" font-family="Arial" font-size="14.00">user_id </text>
<text text-anchor="start" x="103.01" y="-493.6" font-family="Arial" font-size="14.00" fill="#666666">[varchar(255)]</text>
<polygon fill="none" stroke="black" points="46.2,-450.6 46.2,-481.4 347.16,-481.4 347.16,-450.6 46.2,-450.6"/>
<text text-anchor="start" x="53.2" y="-462.8" font-family="Arial" font-size="14.00">user_name </text>
<text text-anchor="start" x="127.13" y="-462.8" font-family="Arial" font-size="14.00" fill="#666666">[varchar(100)]</text>
<polygon fill="none" stroke="black" points="46.2,-419.8 46.2,-450.6 347.16,-450.6 347.16,-419.8 46.2,-419.8"/>
<text text-anchor="start" x="53.2" y="-432" font-family="Arial" font-size="14.00">role </text>
<text text-anchor="start" x="80.43" y="-432" font-family="Arial" font-size="14.00" fill="#666666">[varchar(20)]</text>
<polygon fill="none" stroke="black" points="46.2,-389 46.2,-419.8 347.16,-419.8 347.16,-389 46.2,-389"/>
<text text-anchor="start" x="53.2" y="-401.2" font-family="Arial" font-size="14.00">joined_at </text>
<text text-anchor="start" x="113.92" y="-401.2" font-family="Arial" font-size="14.00" fill="#666666">[timestamp with time zone]</text>
<polygon fill="none" stroke="black" stroke-width="3" points="44.7,-387.5 44.7,-580.1 348.66,-580.1 348.66,-387.5 44.7,-387.5"/>
</g>
<!-- public.chat_rooms -->
<g id="node2" class="node">
<title>public.chat_rooms</title>
<polygon fill="#efefef" stroke="none" points="60.7,-228 60.7,-263.6 332.66,-263.6 332.66,-228 60.7,-228"/>
<polygon fill="none" stroke="black" points="60.7,-228 60.7,-263.6 332.66,-263.6 332.66,-228 60.7,-228"/>
<text text-anchor="start" x="67.7" y="-241.4" font-family="Arial Bold" font-size="18.00">public.chat_rooms</text>
<text text-anchor="start" x="201.17" y="-241.4" font-family="Arial" font-size="14.00">    </text>
<text text-anchor="start" x="232.29" y="-241.4" font-family="Arial" font-size="14.00" fill="#666666">[BASE TABLE]</text>
<polygon fill="none" stroke="black" points="60.7,-197.2 60.7,-228 332.66,-228 332.66,-197.2 60.7,-197.2"/>
<text text-anchor="start" x="67.7" y="-209.4" font-family="Arial" font-size="14.00">id </text>
<text text-anchor="start" x="82.48" y="-209.4" font-family="Arial" font-size="14.00" fill="#666666">[uuid]</text>
<polygon fill="none" stroke="black" points="60.7,-166.4 60.7,-197.2 332.66,-197.2 332.66,-166.4 60.7,-166.4"/>
<text text-anchor="start" x="67.7" y="-178.6" font-family="Arial" font-size="14.00">name </text>
<text text-anchor="start" x="106.61" y="-178.6" font-family="Arial" font-size="14.00" fill="#666666">[varchar(100)]</text>
<polygon fill="none" stroke="black" points="60.7,-135.6 60.7,-166.4 332.66,-166.4 332.66,-135.6 60.7,-135.6"/>
<text text-anchor="start" x="67.7" y="-147.8" font-family="Arial" font-size="14.00">description </text>
<text text-anchor="start" x="139.29" y="-147.8" font-family="Arial" font-size="14.00" fill="#666666">[varchar(500)]</text>
<polygon fill="none" stroke="black" points="60.7,-104.8 60.7,-135.6 332.66,-135.6 332.66,-104.8 60.7,-104.8"/>
<text text-anchor="start" x="67.7" y="-117" font-family="Arial" font-size="14.00">created_by </text>
<text text-anchor="start" x="140.86" y="-117" font-family="Arial" font-size="14.00" fill="#666666">[varchar(255)]</text>
<polygon fill="none" stroke="black" points="60.7,-74 60.7,-104.8 332.66,-104.8 332.66,-74 60.7,-74"/>
<text text-anchor="start" x="67.7" y="-86.2" font-family="Arial" font-size="14.00">created_at </text>
<text text-anchor="start" x="137.75" y="-86.2" font-family="Arial" font-size="14.00" fill="#666666">[timestamp with time zone]</text>
<polygon fill="none" stroke="black" points="60.7,-43.2 60.7,-74 332.66,-74 332.66,-43.2 60.7,-43.2"/>
<text text-anchor="start" x="67.7" y="-55.4" font-family="Arial" font-size="14.00">updated_at </text>
<text text-anchor="start" x="141.66" y="-55.4" font-family="Arial" font-size="14.00" fill="#666666">[timestamp with time zone]</text>
</g>
<!-- public.room_members&#45;&gt;public.chat_rooms -->
<g id="edge1" class="edge">
<title>public.room_members:room_id&#45;&gt;public.chat_rooms:id</title>
<path fill="none" stroke="black" d="M358.18,-525.25C416.61,-496.42 400.17,-212.6 333.66,-212.6"/>
<polygon fill="black" stroke="black" points="358.22,-525.24 347.45,-523.14 353.02,-526.46 348.81,-527.45 348.81,-527.45 348.81,-527.45 353.02,-526.46 349.51,-531.9 358.22,-525.24"/>
<text text-anchor="start" x="355.16" y="-537.6" font-family="Arial" font-size="10.00">FOREIGN KEY (room_id) REFERENCES chat_rooms(id) ON DELETE CASCADE</text>
</g>
</g>
</svg>
