<?xml version="1.0" encoding="UTF-8" standalone="no"?>
<!DOCTYPE svg PUBLIC "-//W3C//DTD SVG 1.1//EN"
 "http://www.w3.org/Graphics/SVG/1.1/DTD/svg11.dtd">
<!-- Generated by graphviz version 12.1.2 (20240928.0832)
 -->
<!-- Title: public.users Pages: 1 -->
<svg width="1150pt" height="602pt"
 viewBox="0.00 0.00 1149.86 602.00" xmlns="http://www.w3.org/2000/svg" xmlns:xlink="http://www.w3.org/1999/xlink">
<g id="graph0" class="graph" transform="scale(1 1) rotate(0) translate(4 598)">
<title>public.users</title>
<polygon fill="white" stroke="none" points="-4,4 -4,-598 1145.86,-598 1145.86,4 -4,4"/>
<!-- public.users -->
<g id="node1" class="node">
<title>public.users</title>
<polygon fill="#efefef" stroke="none" points="252.3,-169.4 252.3,-205 502.07,-205 502.07,-169.4 252.3,-169.4"/>
<polygon fill="none" stroke="black" points="252.3,-169.4 252.3,-205 502.07,-205 502.07,-169.4 252.3,-169.4"/>
<text text-anchor="start" x="271.7" y="-182.8" font-family="Arial Bold" font-size="18.00">public.users</text>
<text text-anchor="start" x="358.18" y="-182.8" font-family="Arial" font-size="14.00">    </text>
<text text-anchor="start" x="389.3" y="-182.8" font-family="Arial" font-size="14.00" fill="#666666">[BASE TABLE]</text>
<polygon fill="none" stroke="black" points="252.3,-138.6 252.3,-169.4 502.07,-169.4 502.07,-138.6 252.3,-138.6"/>
<text text-anchor="start" x="259.3" y="-150.8" font-family="Arial" font-size="14.00">id </text>
<text text-anchor="start" x="274.09" y="-150.8" font-family="Arial" font-size="14.00" fill="#666666">[varchar(255)]</text>
<polygon fill="none" stroke="black" points="252.3,-107.8 252.3,-138.6 502.07,-138.6 502.07,-107.8 252.3,-107.8"/>
<text text-anchor="start" x="259.3" y="-120" font-family="Arial" font-size="14.00">email </text>
<text text-anchor="start" x="296.64" y="-120" font-family="Arial" font-size="14.00" fill="#666666">[varchar(255)]</text>
<polygon fill="none" stroke="black" points="252.3,-77 252.3,-107.8 502.07,-107.8 502.07,-77 252.3,-77"/>
<text text-anchor="start" x="259.3" y="-89.2" font-family="Arial" font-size="14.00">display_name </text>
<text text-anchor="start" x="349.57" y="-89.2" font-family="Arial" font-size="14.00" fill="#666666">[varchar(100)]</text>
<polygon fill="none" stroke="black" points="252.3,-46.2 252.3,-77 502.07,-77 502.07,-46.2 252.3,-46.2"/>
<text text-anchor="start" x="259.3" y="-58.4" font-family="Arial" font-size="14.00">created_at </text>
<text text-anchor="start" x="329.35" y="-58.4" font-family="Arial" font-size="14.00" fill="#666666">[timestamp with time zone]</text>
<polygon fill="none" stroke="black" stroke-width="3" points="250.8,-44.7 250.8,-206.5 503.57,-206.5 503.57,-44.7 250.8,-44.7"/>
</g>
<!-- public.friendships -->
<g id="node2" class="node">
<title>public.friendships</title>
<polygon fill="#efefef" stroke="none" points="43.2,-499.8 43.2,-535.4 311.17,-535.4 311.17,-499.8 43.2,-499.8"/>
<polygon fill="none" stroke="black" points="43.2,-499.8 43.2,-535.4 311.17,-535.4 311.17,-499.8 43.2,-499.8"/>
<text text-anchor="start" x="50.2" y="-513.2" font-family="Arial Bold" font-size="18.00">public.friendships</text>
<text text-anchor="start" x="179.68" y="-513.2" font-family="Arial" font-size="14.00">    </text>
<text text-anchor="start" x="210.8" y="-513.2" font-family="Arial" font-size="14.00" fill="#666666">[BASE TABLE]</text>
<polygon fill="none" stroke="black" points="43.2,-469 43.2,-499.8 311.17,-499.8 311.17,-469 43.2,-469"/>
<text text-anchor="start" x="50.2" y="-481.2" font-family="Arial" font-size="14.00">user_id </text>
<text text-anchor="start" x="100.01" y="-481.2" font-family="Arial" font-size="14.00" fill="#666666">[varchar(255)]</text>
<polygon fill="none" stroke="black" points="43.2,-438.2 43.2,-469 311.17,-469 311.17,-438.2 43.2,-438.2"/>
<text text-anchor="start" x="50.2" y="-450.4" font-family="Arial" font-size="14.00">friend_id </text>
<text text-anchor="start" x="107.79" y="-450.4" font-family="Arial" font-size="14.00" fill="#666666">[varchar(255)]</text>
<polygon fill="none" stroke="black" points="43.2,-407.4 43.2,-438.2 311.17,-438.2 311.17,-407.4 43.2,-407.4"/>
<text text-anchor="start" x="50.2" y="-419.6" font-family="Arial" font-size="14.00">status </text>
<text text-anchor="start" x="91.44" y="-419.6" font-family="Arial" font-size="14.00" fill="#666666">[varchar(20)]</text>
<polygon fill="none" stroke="black" points="43.2,-376.6 43.2,-407.4 311.17,-407.4 311.17,-376.6 43.2,-376.6"/>
<text text-anchor="start" x="50.2" y="-388.8" font-family="Arial" font-size="14.00">created_at </text>
<text text-anchor="start" x="120.25" y="-388.8" font-family="Arial" font-size="14.00" fill="#666666">[timestamp with time zone]</text>
<polygon fill="none" stroke="black" points="43.2,-345.8 43.2,-376.6 311.17,-376.6 311.17,-345.8 43.2,-345.8"/>
<text text-anchor="start" x="50.2" y="-358" font-family="Arial" font-size="14.00">updated_at </text>
<text text-anchor="start" x="124.16" y="-358" font-family="Arial" font-size="14.00" fill="#666666">[timestamp with time zone]</text>
</g>
<!-- public.friendships&#45;&gt;public.users -->
<g id="edge1" class="edge">
<title>public.friendships:friend_id&#45;&gt;public.users:id</title>
<path fill="none" stroke="black" d="M322.56,-452.76C374.77,-443.5 337.55,-360.15 311.17,-302.6 296.7,-271.03 266.83,-282.75 252.3,-251.2 234.22,-211.96 208.1,-154 251.3,-154"/>
<polygon fill="black" stroke="black" points="322.47,-452.76 312.14,-449.09 317.15,-453.2 312.84,-453.55 312.84,-453.55 312.84,-453.55 317.15,-453.2 312.87,-458.06 322.47,-452.76"/>
<text text-anchor="start" x="319.17" y="-463.6" font-family="Arial" font-size="10.00">FOREIGN KEY (friend_id) REFERENCES users(id)</text>
</g>
<!-- public.friendships&#45;&gt;public.users -->
<g id="edge2" class="edge">
<title>public.friendships:user_id&#45;&gt;public.users:id</title>
<path fill="none" stroke="black" d="M322.29,-483.76C388.67,-474.74 343.29,-372.77 311.17,-302.6 296.71,-271.02 266.83,-282.75 252.3,-251.2 234.22,-211.96 208.1,-154 251.3,-154"/>
<polygon fill="black" stroke="black" points="322.48,-483.74 312.22,-479.89 317.16,-484.08 312.84,-484.36 312.84,-484.36 312.84,-484.36 317.16,-484.08 312.79,-488.87 322.48,-483.74"/>
<text text-anchor="start" x="319.17" y="-494.4" font-family="Arial" font-size="10.00">FOREIGN KEY (user_id) REFERENCES users(id)</text>
</g>
<!-- public.push_subscriptions -->
<g id="node3" class="node">
<title>public.push_subscriptions</title>
<polygon fill="#efefef" stroke="none" points="415.19,-515.2 415.19,-550.8 741.18,-550.8 741.18,-515.2 415.19,-515.2"/>
<polygon fill="none" stroke="black" points="415.19,-515.2 415.19,-550.8 741.18,-550.8 741.18,-515.2 415.19,-515.2"/>
<text text-anchor="start" x="422.19" y="-528.6" font-family="Arial Bold" font-size="18.00">public.push_subscriptions</text>
<text text-anchor="start" x="609.69" y="-528.6" font-family="Arial" font-size="14.00">    </text>
<text text-anchor="start" x="640.81" y="-528.6" font-family="Arial" font-size="14.00" fill="#666666">[BASE TABLE]</text>
<polygon fill="none" stroke="black" points="415.19,-484.4 415.19,-515.2 741.18,-515.2 741.18,-484.4 415.19,-484.4"/>
<text text-anchor="start" x="422.19" y="-496.6" font-family="Arial" font-size="14.00">id </text>
<text text-anchor="start" x="436.98" y="-496.6" font-family="Arial" font-size="14.00" fill="#666666">[uuid]</text>
<polygon fill="none" stroke="black" points="415.19,-453.6 415.19,-484.4 741.18,-484.4 741.18,-453.6 415.19,-453.6"/>
<text text-anchor="start" x="422.19" y="-465.8" font-family="Arial" font-size="14.00">user_id </text>
<text text-anchor="start" x="472" y="-465.8" font-family="Arial" font-size="14.00" fill="#666666">[varchar(255)]</text>
<polygon fill="none" stroke="black" points="415.19,-422.8 415.19,-453.6 741.18,-453.6 741.18,-422.8 415.19,-422.8"/>
<text text-anchor="start" x="422.19" y="-435" font-family="Arial" font-size="14.00">endpoint </text>
<text text-anchor="start" x="479.8" y="-435" font-family="Arial" font-size="14.00" fill="#666666">[text]</text>
<polygon fill="none" stroke="black" points="415.19,-392 415.19,-422.8 741.18,-422.8 741.18,-392 415.19,-392"/>
<text text-anchor="start" x="422.19" y="-404.2" font-family="Arial" font-size="14.00">p256dh </text>
<text text-anchor="start" x="472.8" y="-404.2" font-family="Arial" font-size="14.00" fill="#666666">[text]</text>
<polygon fill="none" stroke="black" points="415.19,-361.2 415.19,-392 741.18,-392 741.18,-361.2 415.19,-361.2"/>
<text text-anchor="start" x="422.19" y="-373.4" font-family="Arial" font-size="14.00">auth </text>
<text text-anchor="start" x="453.33" y="-373.4" font-family="Arial" font-size="14.00" fill="#666666">[text]</text>
<polygon fill="none" stroke="black" points="415.19,-330.4 415.19,-361.2 741.18,-361.2 741.18,-330.4 415.19,-330.4"/>
<text text-anchor="start" x="422.19" y="-342.6" font-family="Arial" font-size="14.00">created_at </text>
<text text-anchor="start" x="492.24" y="-342.6" font-family="Arial" font-size="14.00" fill="#666666">[timestamp with time zone]</text>
</g>
<!-- public.push_subscriptions&#45;&gt;public.users -->
<g id="edge3" class="edge">
<title>public.push_subscriptions:user_id&#45;&gt;public.users:id</title>
<path fill="none" stroke="black" d="M404,-468.32C336.71,-458.79 372.15,-351.25 415.19,-287.2 438.51,-252.51 478.67,-285.83 502.07,-251.2 526.25,-215.4 546.27,-154 503.07,-154"/>
<polygon fill="black" stroke="black" points="403.88,-468.31 413.56,-473.47 409.2,-468.67 413.52,-468.96 413.52,-468.96 413.52,-468.96 409.2,-468.67 414.16,-464.49 403.88,-468.31"/>
<text text-anchor="start" x="421.19" y="-479" font-family="Arial" font-size="10.00">FOREIGN KEY (user_id) REFERENCES users(id)</text>
</g>
<!-- public.reactions -->
<g id="node4" class="node">
<title>public.reactions</title>
<polygon fill="#efefef" stroke="none" points="845.71,-499.8 845.71,-535.4 1098.66,-535.4 1098.66,-499.8 845.71,-499.8"/>
<polygon fill="none" stroke="black" points="845.71,-499.8 845.71,-535.4 1098.66,-535.4 1098.66,-499.8 845.71,-499.8"/>
<text text-anchor="start" x="852.71" y="-513.2" font-family="Arial Bold" font-size="18.00">public.reactions</text>
<text text-anchor="start" x="967.17" y="-513.2" font-family="Arial" font-size="14.00">    </text>
<text text-anchor="start" x="998.29" y="-513.2" font-family="Arial" font-size="14.00" fill="#666666">[BASE TABLE]</text>
<polygon fill="none" stroke="black" points="845.71,-469 845.71,-499.8 1098.66,-499.8 1098.66,-469 845.71,-469"/>
<text text-anchor="start" x="852.71" y="-481.2" font-family="Arial" font-size="14.00">id </text>
<text text-anchor="start" x="867.5" y="-481.2" font-family="Arial" font-size="14.00" fill="#666666">[uuid]</text>
<polygon fill="none" stroke="black" points="845.71,-438.2 845.71,-469 1098.66,-469 1098.66,-438.2 845.71,-438.2"/>
<text text-anchor="start" x="852.71" y="-450.4" font-family="Arial" font-size="14.00">message_id </text>
<text text-anchor="start" x="932.09" y="-450.4" font-family="Arial" font-size="14.00" fill="#666666">[uuid]</text>
<polygon fill="none" stroke="black" points="845.71,-407.4 845.71,-438.2 1098.66,-438.2 1098.66,-407.4 845.71,-407.4"/>
<text text-anchor="start" x="852.71" y="-419.6" font-family="Arial" font-size="14.00">user_id </text>
<text text-anchor="start" x="902.52" y="-419.6" font-family="Arial" font-size="14.00" fill="#666666">[varchar(255)]</text>
<polygon fill="none" stroke="black" points="845.71,-376.6 845.71,-407.4 1098.66,-407.4 1098.66,-376.6 845.71,-376.6"/>
<text text-anchor="start" x="852.71" y="-388.8" font-family="Arial" font-size="14.00">emoji </text>
<text text-anchor="start" x="890.05" y="-388.8" font-family="Arial" font-size="14.00" fill="#666666">[varchar(10)]</text>
<polygon fill="none" stroke="black" points="845.71,-345.8 845.71,-376.6 1098.66,-376.6 1098.66,-345.8 845.71,-345.8"/>
<text text-anchor="start" x="852.71" y="-358" font-family="Arial" font-size="14.00">created_at </text>
<text text-anchor="start" x="922.76" y="-358" font-family="Arial" font-size="14.00" fill="#666666">[timestamp with time zone]</text>
</g>
<!-- public.reactions&#45;&gt;public.users -->
<g id="edge4" class="edge">
<title>public.reactions:user_id&#45;&gt;public.users:id</title>
<path fill="none" stroke="black" d="M834.58,-421.91C786.57,-412.57 834.63,-331.54 793.18,-287.2 696.29,-183.56 644.95,-154 503.07,-154"/>
<polygon fill="black" stroke="black" points="834.42,-421.9 843.99,-427.25 839.73,-422.36 844.04,-422.74 844.04,-422.74 844.04,-422.74 839.73,-422.36 844.77,-418.29 834.42,-421.9"/>
<text text-anchor="start" x="614.33" y="-432.8" font-family="Arial" font-size="10.00">FOREIGN KEY (user_id) REFERENCES users(id)</text>
</g>
</g>
</svg>
