<?xml version="1.0" encoding="UTF-8" standalone="no"?>
<!DOCTYPE svg PUBLIC "-//W3C//DTD SVG 1.1//EN"
 "http://www.w3.org/Graphics/SVG/1.1/DTD/svg11.dtd">
<!-- Generated by graphviz version 12.1.2 (20240928.0832)
 -->
<!-- Title: public.file_attachments Pages: 1 -->
<svg width="777pt" height="725pt"
 viewBox="0.00 0.00 776.80 725.20" xmlns="http://www.w3.org/2000/svg" xmlns:xlink="http://www.w3.org/1999/xlink">
<g id="graph0" class="graph" transform="scale(1 1) rotate(0) translate(4 721.2)">
<title>public.file_attachments</title>
<polygon fill="white" stroke="none" points="-4,4 -4,-721.2 772.8,-721.2 772.8,4 -4,4"/>
<!-- public.file_attachments -->
<g id="node1" class="node">
<title>public.file_attachments</title>
<polygon fill="#efefef" stroke="none" points="46.2,-635.4 46.2,-671 353.13,-671 353.13,-635.4 46.2,-635.4"/>
<polygon fill="none" stroke="black" points="46.2,-635.4 46.2,-671 353.13,-671 353.13,-635.4 46.2,-635.4"/>
<text text-anchor="start" x="53.2" y="-648.8" font-family="Arial Bold" font-size="18.00">public.file_attachments</text>
<text text-anchor="start" x="221.64" y="-648.8" font-family="Arial" font-size="14.00">    </text>
<text text-anchor="start" x="252.76" y="-648.8" font-family="Arial" font-size="14.00" fill="#666666">[BASE TABLE]</text>
<polygon fill="none" stroke="black" points="46.2,-604.6 46.2,-635.4 353.13,-635.4 353.13,-604.6 46.2,-604.6"/>
<text text-anchor="start" x="53.2" y="-616.8" font-family="Arial" font-size="14.00">id </text>
<text text-anchor="start" x="67.99" y="-616.8" font-family="Arial" font-size="14.00" fill="#666666">[uuid]</text>
<polygon fill="none" stroke="black" points="46.2,-573.8 46.2,-604.6 353.13,-604.6 353.13,-573.8 46.2,-573.8"/>
<text text-anchor="start" x="53.2" y="-586" font-family="Arial" font-size="14.00">message_id </text>
<text text-anchor="start" x="132.58" y="-586" font-family="Arial" font-size="14.00" fill="#666666">[uuid]</text>
<polygon fill="none" stroke="black" points="46.2,-543 46.2,-573.8 353.13,-573.8 353.13,-543 46.2,-543"/>
<text text-anchor="start" x="53.2" y="-555.2" font-family="Arial" font-size="14.00">file_name </text>
<text text-anchor="start" x="117.79" y="-555.2" font-family="Arial" font-size="14.00" fill="#666666">[varchar(255)]</text>
<polygon fill="none" stroke="black" points="46.2,-512.2 46.2,-543 353.13,-543 353.13,-512.2 46.2,-512.2"/>
<text text-anchor="start" x="53.2" y="-524.4" font-family="Arial" font-size="14.00">file_size </text>
<text text-anchor="start" x="107.67" y="-524.4" font-family="Arial" font-size="14.00" fill="#666666">[bigint]</text>
<polygon fill="none" stroke="black" points="46.2,-481.4 46.2,-512.2 353.13,-512.2 353.13,-481.4 46.2,-481.4"/>
<text text-anchor="start" x="53.2" y="-493.6" font-family="Arial" font-size="14.00">content_type </text>
<text text-anchor="start" x="137.26" y="-493.6" font-family="Arial" font-size="14.00" fill="#666666">[varchar(100)]</text>
<polygon fill="none" stroke="black" points="46.2,-450.6 46.2,-481.4 353.13,-481.4 353.13,-450.6 46.2,-450.6"/>
<text text-anchor="start" x="53.2" y="-462.8" font-family="Arial" font-size="14.00">s3_key </text>
<text text-anchor="start" x="101.45" y="-462.8" font-family="Arial" font-size="14.00" fill="#666666">[varchar(500)]</text>
<polygon fill="none" stroke="black" points="46.2,-419.8 46.2,-450.6 353.13,-450.6 353.13,-419.8 46.2,-419.8"/>
<text text-anchor="start" x="53.2" y="-432" font-family="Arial" font-size="14.00">created_at </text>
<text text-anchor="start" x="123.25" y="-432" font-family="Arial" font-size="14.00" fill="#666666">[timestamp with time zone]</text>
<polygon fill="none" stroke="black" stroke-width="3" points="44.7,-418.3 44.7,-672.5 354.63,-672.5 354.63,-418.3 44.7,-418.3"/>
</g>
<!-- public.chat_messages -->
<g id="node2" class="node">
<title>public.chat_messages</title>
<polygon fill="#efefef" stroke="none" points="52.19,-258.8 52.19,-294.4 347.14,-294.4 347.14,-258.8 52.19,-258.8"/>
<polygon fill="none" stroke="black" points="52.19,-258.8 52.19,-294.4 347.14,-294.4 347.14,-258.8 52.19,-258.8"/>
<text text-anchor="start" x="59.19" y="-272.2" font-family="Arial Bold" font-size="18.00">public.chat_messages</text>
<text text-anchor="start" x="215.65" y="-272.2" font-family="Arial" font-size="14.00">    </text>
<text text-anchor="start" x="246.77" y="-272.2" font-family="Arial" font-size="14.00" fill="#666666">[BASE TABLE]</text>
<polygon fill="none" stroke="black" points="52.19,-228 52.19,-258.8 347.14,-258.8 347.14,-228 52.19,-228"/>
<text text-anchor="start" x="59.19" y="-240.2" font-family="Arial" font-size="14.00">id </text>
<text text-anchor="start" x="73.98" y="-240.2" font-family="Arial" font-size="14.00" fill="#666666">[uuid]</text>
<polygon fill="none" stroke="black" points="52.19,-197.2 52.19,-228 347.14,-228 347.14,-197.2 52.19,-197.2"/>
<text text-anchor="start" x="59.19" y="-209.4" font-family="Arial" font-size="14.00">room_id </text>
<text text-anchor="start" x="113.66" y="-209.4" font-family="Arial" font-size="14.00" fill="#666666">[uuid]</text>
<polygon fill="none" stroke="black" points="52.19,-166.4 52.19,-197.2 347.14,-197.2 347.14,-166.4 52.19,-166.4"/>
<text text-anchor="start" x="59.19" y="-178.6" font-family="Arial" font-size="14.00">sender_id </text>
<text text-anchor="start" x="124.57" y="-178.6" font-family="Arial" font-size="14.00" fill="#666666">[varchar(255)]</text>
<polygon fill="none" stroke="black" points="52.19,-135.6 52.19,-166.4 347.14,-166.4 347.14,-135.6 52.19,-135.6"/>
<text text-anchor="start" x="59.19" y="-147.8" font-family="Arial" font-size="14.00">sender_name </text>
<text text-anchor="start" x="148.7" y="-147.8" font-family="Arial" font-size="14.00" fill="#666666">[varchar(100)]</text>
<polygon fill="none" stroke="black" points="52.19,-104.8 52.19,-135.6 347.14,-135.6 347.14,-104.8 52.19,-104.8"/>
<text text-anchor="start" x="59.19" y="-117" font-family="Arial" font-size="14.00">content </text>
<text text-anchor="start" x="109.01" y="-117" font-family="Arial" font-size="14.00" fill="#666666">[text]</text>
<polygon fill="none" stroke="black" points="52.19,-74 52.19,-104.8 347.14,-104.8 347.14,-74 52.19,-74"/>
<text text-anchor="start" x="59.19" y="-86.2" font-family="Arial" font-size="14.00">message_type </text>
<text text-anchor="start" x="154.14" y="-86.2" font-family="Arial" font-size="14.00" fill="#666666">[varchar(20)]</text>
<polygon fill="none" stroke="black" points="52.19,-43.2 52.19,-74 347.14,-74 347.14,-43.2 52.19,-43.2"/>
<text text-anchor="start" x="59.19" y="-55.4" font-family="Arial" font-size="14.00">created_at </text>
<text text-anchor="start" x="129.24" y="-55.4" font-family="Arial" font-size="14.00" fill="#666666">[timestamp with time zone]</text>
</g>
<!-- public.file_attachments&#45;&gt;public.chat_messages -->
<g id="edge1" class="edge">
<title>public.file_attachments:message_id&#45;&gt;public.chat_messages:id</title>
<path fill="none" stroke="black" d="M363.99,-587.17C430.31,-558.83 421.54,-243.4 348.14,-243.4"/>
<polygon fill="black" stroke="black" points="364.25,-587.11 353.55,-584.73 359.03,-588.19 354.79,-589.07 354.79,-589.07 354.79,-589.07 359.03,-588.19 355.37,-593.54 364.25,-587.11"/>
<text text-anchor="start" x="361.13" y="-599.2" font-family="Arial" font-size="10.00">FOREIGN KEY (message_id) REFERENCES chat_messages(id) ON DELETE CASCADE</text>
</g>
</g>
</svg>
