<?xml version="1.0" encoding="UTF-8" standalone="no"?>
<!DOCTYPE svg PUBLIC "-//W3C//DTD SVG 1.1//EN"
 "http://www.w3.org/Graphics/SVG/1.1/DTD/svg11.dtd">
<!-- Generated by graphviz version 12.1.2 (20240928.0832)
 -->
<!-- Title: chat Pages: 1 -->
<svg width="1625pt" height="1062pt"
 viewBox="0.00 0.00 1624.81 1062.00" xmlns="http://www.w3.org/2000/svg" xmlns:xlink="http://www.w3.org/1999/xlink">
<g id="graph0" class="graph" transform="scale(1 1) rotate(0) translate(4 1058)">
<title>chat</title>
<polygon fill="white" stroke="none" points="-4,4 -4,-1058 1620.81,-1058 1620.81,4 -4,4"/>
<!-- public.chat_rooms -->
<g id="node1" class="node">
<title>public.chat_rooms</title>
<polygon fill="#efefef" stroke="none" points="874.22,-228 874.22,-263.6 1146.18,-263.6 1146.18,-228 874.22,-228"/>
<polygon fill="none" stroke="black" points="874.22,-228 874.22,-263.6 1146.18,-263.6 1146.18,-228 874.22,-228"/>
<text text-anchor="start" x="881.22" y="-241.4" font-family="Arial Bold" font-size="18.00">public.chat_rooms</text>
<text text-anchor="start" x="1014.69" y="-241.4" font-family="Arial" font-size="14.00">    </text>
<text text-anchor="start" x="1045.81" y="-241.4" font-family="Arial" font-size="14.00" fill="#666666">[BASE TABLE]</text>
<polygon fill="none" stroke="black" points="874.22,-197.2 874.22,-228 1146.18,-228 1146.18,-197.2 874.22,-197.2"/>
<text text-anchor="start" x="881.22" y="-209.4" font-family="Arial" font-size="14.00">id </text>
<text text-anchor="start" x="896.01" y="-209.4" font-family="Arial" font-size="14.00" fill="#666666">[uuid]</text>
<polygon fill="none" stroke="black" points="874.22,-166.4 874.22,-197.2 1146.18,-197.2 1146.18,-166.4 874.22,-166.4"/>
<text text-anchor="start" x="881.22" y="-178.6" font-family="Arial" font-size="14.00">name </text>
<text text-anchor="start" x="920.13" y="-178.6" font-family="Arial" font-size="14.00" fill="#666666">[varchar(100)]</text>
<polygon fill="none" stroke="black" points="874.22,-135.6 874.22,-166.4 1146.18,-166.4 1146.18,-135.6 874.22,-135.6"/>
<text text-anchor="start" x="881.22" y="-147.8" font-family="Arial" font-size="14.00">description </text>
<text text-anchor="start" x="952.82" y="-147.8" font-family="Arial" font-size="14.00" fill="#666666">[varchar(500)]</text>
<polygon fill="none" stroke="black" points="874.22,-104.8 874.22,-135.6 1146.18,-135.6 1146.18,-104.8 874.22,-104.8"/>
<text text-anchor="start" x="881.22" y="-117" font-family="Arial" font-size="14.00">created_by </text>
<text text-anchor="start" x="954.38" y="-117" font-family="Arial" font-size="14.00" fill="#666666">[varchar(255)]</text>
<polygon fill="none" stroke="black" points="874.22,-74 874.22,-104.8 1146.18,-104.8 1146.18,-74 874.22,-74"/>
<text text-anchor="start" x="881.22" y="-86.2" font-family="Arial" font-size="14.00">created_at </text>
<text text-anchor="start" x="951.27" y="-86.2" font-family="Arial" font-size="14.00" fill="#666666">[timestamp with time zone]</text>
<polygon fill="none" stroke="black" points="874.22,-43.2 874.22,-74 1146.18,-74 1146.18,-43.2 874.22,-43.2"/>
<text text-anchor="start" x="881.22" y="-55.4" font-family="Arial" font-size="14.00">updated_at </text>
<text text-anchor="start" x="955.18" y="-55.4" font-family="Arial" font-size="14.00" fill="#666666">[timestamp with time zone]</text>
</g>
<!-- public.chat_messages -->
<g id="node2" class="node">
<title>public.chat_messages</title>
<polygon fill="#efefef" stroke="none" points="484.73,-601.6 484.73,-637.2 779.67,-637.2 779.67,-601.6 484.73,-601.6"/>
<polygon fill="none" stroke="black" points="484.73,-601.6 484.73,-637.2 779.67,-637.2 779.67,-601.6 484.73,-601.6"/>
<text text-anchor="start" x="491.73" y="-615" font-family="Arial Bold" font-size="18.00">public.chat_messages</text>
<text text-anchor="start" x="648.19" y="-615" font-family="Arial" font-size="14.00">    </text>
<text text-anchor="start" x="679.3" y="-615" font-family="Arial" font-size="14.00" fill="#666666">[BASE TABLE]</text>
<polygon fill="none" stroke="black" points="484.73,-570.8 484.73,-601.6 779.67,-601.6 779.67,-570.8 484.73,-570.8"/>
<text text-anchor="start" x="491.73" y="-583" font-family="Arial" font-size="14.00">id </text>
<text text-anchor="start" x="506.52" y="-583" font-family="Arial" font-size="14.00" fill="#666666">[uuid]</text>
<polygon fill="none" stroke="black" points="484.73,-540 484.73,-570.8 779.67,-570.8 779.67,-540 484.73,-540"/>
<text text-anchor="start" x="491.73" y="-552.2" font-family="Arial" font-size="14.00">room_id </text>
<text text-anchor="start" x="546.2" y="-552.2" font-family="Arial" font-size="14.00" fill="#666666">[uuid]</text>
<polygon fill="none" stroke="black" points="484.73,-509.2 484.73,-540 779.67,-540 779.67,-509.2 484.73,-509.2"/>
<text text-anchor="start" x="491.73" y="-521.4" font-family="Arial" font-size="14.00">sender_id </text>
<text text-anchor="start" x="557.11" y="-521.4" font-family="Arial" font-size="14.00" fill="#666666">[varchar(255)]</text>
<polygon fill="none" stroke="black" points="484.73,-478.4 484.73,-509.2 779.67,-509.2 779.67,-478.4 484.73,-478.4"/>
<text text-anchor="start" x="491.73" y="-490.6" font-family="Arial" font-size="14.00">sender_name </text>
<text text-anchor="start" x="581.23" y="-490.6" font-family="Arial" font-size="14.00" fill="#666666">[varchar(100)]</text>
<polygon fill="none" stroke="black" points="484.73,-447.6 484.73,-478.4 779.67,-478.4 779.67,-447.6 484.73,-447.6"/>
<text text-anchor="start" x="491.73" y="-459.8" font-family="Arial" font-size="14.00">content </text>
<text text-anchor="start" x="541.54" y="-459.8" font-family="Arial" font-size="14.00" fill="#666666">[text]</text>
<polygon fill="none" stroke="black" points="484.73,-416.8 484.73,-447.6 779.67,-447.6 779.67,-416.8 484.73,-416.8"/>
<text text-anchor="start" x="491.73" y="-429" font-family="Arial" font-size="14.00">message_type </text>
<text text-anchor="start" x="586.68" y="-429" font-family="Arial" font-size="14.00" fill="#666666">[varchar(20)]</text>
<polygon fill="none" stroke="black" points="484.73,-386 484.73,-416.8 779.67,-416.8 779.67,-386 484.73,-386"/>
<text text-anchor="start" x="491.73" y="-398.2" font-family="Arial" font-size="14.00">created_at </text>
<text text-anchor="start" x="561.78" y="-398.2" font-family="Arial" font-size="14.00" fill="#666666">[timestamp with time zone]</text>
</g>
<!-- public.chat_messages&#45;&gt;public.chat_rooms -->
<g id="edge1" class="edge">
<title>public.chat_messages:room_id&#45;&gt;public.chat_rooms:id</title>
<path fill="none" stroke="black" d="M790.85,-553.21C853.78,-524.02 798.02,-212.6 873.22,-212.6"/>
<polygon fill="black" stroke="black" points="790.78,-553.23 780.06,-550.93 785.56,-554.35 781.33,-555.26 781.33,-555.26 781.33,-555.26 785.56,-554.35 781.95,-559.73 790.78,-553.23"/>
<text text-anchor="start" x="408.59" y="-565.4" font-family="Arial" font-size="10.00">FOREIGN KEY (room_id) REFERENCES chat_rooms(id) ON DELETE CASCADE</text>
</g>
<!-- public.room_members -->
<g id="node3" class="node">
<title>public.room_members</title>
<polygon fill="#efefef" stroke="none" points="1238.73,-570.8 1238.73,-606.4 1539.68,-606.4 1539.68,-570.8 1238.73,-570.8"/>
<polygon fill="none" stroke="black" points="1238.73,-570.8 1238.73,-606.4 1539.68,-606.4 1539.68,-570.8 1238.73,-570.8"/>
<text text-anchor="start" x="1245.73" y="-584.2" font-family="Arial Bold" font-size="18.00">public.room_members</text>
<text text-anchor="start" x="1408.19" y="-584.2" font-family="Arial" font-size="14.00">    </text>
<text text-anchor="start" x="1439.31" y="-584.2" font-family="Arial" font-size="14.00" fill="#666666">[BASE TABLE]</text>
<polygon fill="none" stroke="black" points="1238.73,-540 1238.73,-570.8 1539.68,-570.8 1539.68,-540 1238.73,-540"/>
<text text-anchor="start" x="1245.73" y="-552.2" font-family="Arial" font-size="14.00">room_id </text>
<text text-anchor="start" x="1300.19" y="-552.2" font-family="Arial" font-size="14.00" fill="#666666">[uuid]</text>
<polygon fill="none" stroke="black" points="1238.73,-509.2 1238.73,-540 1539.68,-540 1539.68,-509.2 1238.73,-509.2"/>
<text text-anchor="start" x="1245.73" y="-521.4" font-family="Arial" font-size="14.00">user_id </text>
<text text-anchor="start" x="1295.53" y="-521.4" font-family="Arial" font-size="14.00" fill="#666666">[varchar(255)]</text>
<polygon fill="none" stroke="black" points="1238.73,-478.4 1238.73,-509.2 1539.68,-509.2 1539.68,-478.4 1238.73,-478.4"/>
<text text-anchor="start" x="1245.73" y="-490.6" font-family="Arial" font-size="14.00">user_name </text>
<text text-anchor="start" x="1319.66" y="-490.6" font-family="Arial" font-size="14.00" fill="#666666">[varchar(100)]</text>
<polygon fill="none" stroke="black" points="1238.73,-447.6 1238.73,-478.4 1539.68,-478.4 1539.68,-447.6 1238.73,-447.6"/>
<text text-anchor="start" x="1245.73" y="-459.8" font-family="Arial" font-size="14.00">role </text>
<text text-anchor="start" x="1272.96" y="-459.8" font-family="Arial" font-size="14.00" fill="#666666">[varchar(20)]</text>
<polygon fill="none" stroke="black" points="1238.73,-416.8 1238.73,-447.6 1539.68,-447.6 1539.68,-416.8 1238.73,-416.8"/>
<text text-anchor="start" x="1245.73" y="-429" font-family="Arial" font-size="14.00">joined_at </text>
<text text-anchor="start" x="1306.44" y="-429" font-family="Arial" font-size="14.00" fill="#666666">[timestamp with time zone]</text>
</g>
<!-- public.room_members&#45;&gt;public.chat_rooms -->
<g id="edge2" class="edge">
<title>public.room_members:room_id&#45;&gt;public.chat_rooms:id</title>
<path fill="none" stroke="black" d="M1227.58,-553.21C1164.9,-524.02 1222.28,-212.6 1147.18,-212.6"/>
<polygon fill="black" stroke="black" points="1227.62,-553.22 1236.45,-559.73 1232.84,-554.35 1237.07,-555.26 1237.07,-555.26 1237.07,-555.26 1232.84,-554.35 1238.35,-550.93 1227.62,-553.22"/>
<text text-anchor="start" x="1244.73" y="-565.4" font-family="Arial" font-size="10.00">FOREIGN KEY (room_id) REFERENCES chat_rooms(id) ON DELETE CASCADE</text>
</g>
<!-- public.file_attachments -->
<g id="node4" class="node">
<title>public.file_attachments</title>
<polygon fill="#efefef" stroke="none" points="106.74,-975.2 106.74,-1010.8 413.67,-1010.8 413.67,-975.2 106.74,-975.2"/>
<polygon fill="none" stroke="black" points="106.74,-975.2 106.74,-1010.8 413.67,-1010.8 413.67,-975.2 106.74,-975.2"/>
<text text-anchor="start" x="113.74" y="-988.6" font-family="Arial Bold" font-size="18.00">public.file_attachments</text>
<text text-anchor="start" x="282.18" y="-988.6" font-family="Arial" font-size="14.00">    </text>
<text text-anchor="start" x="313.3" y="-988.6" font-family="Arial" font-size="14.00" fill="#666666">[BASE TABLE]</text>
<polygon fill="none" stroke="black" points="106.74,-944.4 106.74,-975.2 413.67,-975.2 413.67,-944.4 106.74,-944.4"/>
<text text-anchor="start" x="113.74" y="-956.6" font-family="Arial" font-size="14.00">id </text>
<text text-anchor="start" x="128.52" y="-956.6" font-family="Arial" font-size="14.00" fill="#666666">[uuid]</text>
<polygon fill="none" stroke="black" points="106.74,-913.6 106.74,-944.4 413.67,-944.4 413.67,-913.6 106.74,-913.6"/>
<text text-anchor="start" x="113.74" y="-925.8" font-family="Arial" font-size="14.00">message_id </text>
<text text-anchor="start" x="193.12" y="-925.8" font-family="Arial" font-size="14.00" fill="#666666">[uuid]</text>
<polygon fill="none" stroke="black" points="106.74,-882.8 106.74,-913.6 413.67,-913.6 413.67,-882.8 106.74,-882.8"/>
<text text-anchor="start" x="113.74" y="-895" font-family="Arial" font-size="14.00">file_name </text>
<text text-anchor="start" x="178.33" y="-895" font-family="Arial" font-size="14.00" fill="#666666">[varchar(255)]</text>
<polygon fill="none" stroke="black" points="106.74,-852 106.74,-882.8 413.67,-882.8 413.67,-852 106.74,-852"/>
<text text-anchor="start" x="113.74" y="-864.2" font-family="Arial" font-size="14.00">file_size </text>
<text text-anchor="start" x="168.21" y="-864.2" font-family="Arial" font-size="14.00" fill="#666666">[bigint]</text>
<polygon fill="none" stroke="black" points="106.74,-821.2 106.74,-852 413.67,-852 413.67,-821.2 106.74,-821.2"/>
<text text-anchor="start" x="113.74" y="-833.4" font-family="Arial" font-size="14.00">content_type </text>
<text text-anchor="start" x="197.8" y="-833.4" font-family="Arial" font-size="14.00" fill="#666666">[varchar(100)]</text>
<polygon fill="none" stroke="black" points="106.74,-790.4 106.74,-821.2 413.67,-821.2 413.67,-790.4 106.74,-790.4"/>
<text text-anchor="start" x="113.74" y="-802.6" font-family="Arial" font-size="14.00">s3_key </text>
<text text-anchor="start" x="161.99" y="-802.6" font-family="Arial" font-size="14.00" fill="#666666">[varchar(500)]</text>
<polygon fill="none" stroke="black" points="106.74,-759.6 106.74,-790.4 413.67,-790.4 413.67,-759.6 106.74,-759.6"/>
<text text-anchor="start" x="113.74" y="-771.8" font-family="Arial" font-size="14.00">created_at </text>
<text text-anchor="start" x="183.79" y="-771.8" font-family="Arial" font-size="14.00" fill="#666666">[timestamp with time zone]</text>
</g>
<!-- public.file_attachments&#45;&gt;public.chat_messages -->
<g id="edge3" class="edge">
<title>public.file_attachments:message_id&#45;&gt;public.chat_messages:id</title>
<path fill="none" stroke="black" d="M424.55,-926.81C484.64,-897.62 409.67,-586.2 483.73,-586.2"/>
<polygon fill="black" stroke="black" points="424.76,-926.76 414.02,-924.53 419.55,-927.92 415.32,-928.86 415.32,-928.86 415.32,-928.86 419.55,-927.92 415.97,-933.32 424.76,-926.76"/>
<text text-anchor="start" x="7" y="-939" font-family="Arial" font-size="10.00">FOREIGN KEY (message_id) REFERENCES chat_messages(id) ON DELETE CASCADE</text>
</g>
<!-- public.users -->
<g id="node5" class="node">
<title>public.users</title>
<polygon fill="#efefef" stroke="none" points="884.32,-555.4 884.32,-591 1134.09,-591 1134.09,-555.4 884.32,-555.4"/>
<polygon fill="none" stroke="black" points="884.32,-555.4 884.32,-591 1134.09,-591 1134.09,-555.4 884.32,-555.4"/>
<text text-anchor="start" x="903.72" y="-568.8" font-family="Arial Bold" font-size="18.00">public.users</text>
<text text-anchor="start" x="990.2" y="-568.8" font-family="Arial" font-size="14.00">    </text>
<text text-anchor="start" x="1021.32" y="-568.8" font-family="Arial" font-size="14.00" fill="#666666">[BASE TABLE]</text>
<polygon fill="none" stroke="black" points="884.32,-524.6 884.32,-555.4 1134.09,-555.4 1134.09,-524.6 884.32,-524.6"/>
<text text-anchor="start" x="891.32" y="-536.8" font-family="Arial" font-size="14.00">id </text>
<text text-anchor="start" x="906.1" y="-536.8" font-family="Arial" font-size="14.00" fill="#666666">[varchar(255)]</text>
<polygon fill="none" stroke="black" points="884.32,-493.8 884.32,-524.6 1134.09,-524.6 1134.09,-493.8 884.32,-493.8"/>
<text text-anchor="start" x="891.32" y="-506" font-family="Arial" font-size="14.00">email </text>
<text text-anchor="start" x="928.66" y="-506" font-family="Arial" font-size="14.00" fill="#666666">[varchar(255)]</text>
<polygon fill="none" stroke="black" points="884.32,-463 884.32,-493.8 1134.09,-493.8 1134.09,-463 884.32,-463"/>
<text text-anchor="start" x="891.32" y="-475.2" font-family="Arial" font-size="14.00">display_name </text>
<text text-anchor="start" x="981.59" y="-475.2" font-family="Arial" font-size="14.00" fill="#666666">[varchar(100)]</text>
<polygon fill="none" stroke="black" points="884.32,-432.2 884.32,-463 1134.09,-463 1134.09,-432.2 884.32,-432.2"/>
<text text-anchor="start" x="891.32" y="-444.4" font-family="Arial" font-size="14.00">created_at </text>
<text text-anchor="start" x="961.37" y="-444.4" font-family="Arial" font-size="14.00" fill="#666666">[timestamp with time zone]</text>
</g>
<!-- public.friendships -->
<g id="node6" class="node">
<title>public.friendships</title>
<polygon fill="#efefef" stroke="none" points="875.22,-944.4 875.22,-980 1143.19,-980 1143.19,-944.4 875.22,-944.4"/>
<polygon fill="none" stroke="black" points="875.22,-944.4 875.22,-980 1143.19,-980 1143.19,-944.4 875.22,-944.4"/>
<text text-anchor="start" x="882.22" y="-957.8" font-family="Arial Bold" font-size="18.00">public.friendships</text>
<text text-anchor="start" x="1011.7" y="-957.8" font-family="Arial" font-size="14.00">    </text>
<text text-anchor="start" x="1042.82" y="-957.8" font-family="Arial" font-size="14.00" fill="#666666">[BASE TABLE]</text>
<polygon fill="none" stroke="black" points="875.22,-913.6 875.22,-944.4 1143.19,-944.4 1143.19,-913.6 875.22,-913.6"/>
<text text-anchor="start" x="882.22" y="-925.8" font-family="Arial" font-size="14.00">user_id </text>
<text text-anchor="start" x="932.02" y="-925.8" font-family="Arial" font-size="14.00" fill="#666666">[varchar(255)]</text>
<polygon fill="none" stroke="black" points="875.22,-882.8 875.22,-913.6 1143.19,-913.6 1143.19,-882.8 875.22,-882.8"/>
<text text-anchor="start" x="882.22" y="-895" font-family="Arial" font-size="14.00">friend_id </text>
<text text-anchor="start" x="939.81" y="-895" font-family="Arial" font-size="14.00" fill="#666666">[varchar(255)]</text>
<polygon fill="none" stroke="black" points="875.22,-852 875.22,-882.8 1143.19,-882.8 1143.19,-852 875.22,-852"/>
<text text-anchor="start" x="882.22" y="-864.2" font-family="Arial" font-size="14.00">status </text>
<text text-anchor="start" x="923.46" y="-864.2" font-family="Arial" font-size="14.00" fill="#666666">[varchar(20)]</text>
<polygon fill="none" stroke="black" points="875.22,-821.2 875.22,-852 1143.19,-852 1143.19,-821.2 875.22,-821.2"/>
<text text-anchor="start" x="882.22" y="-833.4" font-family="Arial" font-size="14.00">created_at </text>
<text text-anchor="start" x="952.27" y="-833.4" font-family="Arial" font-size="14.00" fill="#666666">[timestamp with time zone]</text>
<polygon fill="none" stroke="black" points="875.22,-790.4 875.22,-821.2 1143.19,-821.2 1143.19,-790.4 875.22,-790.4"/>
<text text-anchor="start" x="882.22" y="-802.6" font-family="Arial" font-size="14.00">updated_at </text>
<text text-anchor="start" x="956.18" y="-802.6" font-family="Arial" font-size="14.00" fill="#666666">[timestamp with time zone]</text>
</g>
<!-- public.friendships&#45;&gt;public.users -->
<g id="edge4" class="edge">
<title>public.friendships:friend_id&#45;&gt;public.users:id</title>
<path fill="none" stroke="black" d="M1152.44,-892.28C1182.44,-845.71 1171.87,-540 1135.09,-540"/>
<polygon fill="black" stroke="black" points="1152.59,-892.18 1141.84,-894.35 1148.25,-895.29 1144.73,-897.81 1144.73,-897.81 1144.73,-897.81 1148.25,-895.29 1147.08,-901.66 1152.59,-892.18"/>
<text text-anchor="start" x="1151.19" y="-908.2" font-family="Arial" font-size="10.00">FOREIGN KEY (friend_id) REFERENCES users(id)</text>
</g>
<!-- public.friendships&#45;&gt;public.users -->
<g id="edge5" class="edge">
<title>public.friendships:user_id&#45;&gt;public.users:id</title>
<path fill="none" stroke="black" d="M1152.75,-923.2C1185.93,-874.81 1175.2,-540 1135.09,-540"/>
<polygon fill="black" stroke="black" points="1152.74,-923.2 1141.94,-925.09 1148.33,-926.2 1144.74,-928.62 1144.74,-928.62 1144.74,-928.62 1148.33,-926.2 1146.99,-932.54 1152.74,-923.2"/>
<text text-anchor="start" x="1151.19" y="-939" font-family="Arial" font-size="10.00">FOREIGN KEY (user_id) REFERENCES users(id)</text>
</g>
<!-- public.push_subscriptions -->
<g id="node7" class="node">
<title>public.push_subscriptions</title>
<polygon fill="#efefef" stroke="none" points="1247.21,-959.8 1247.21,-995.4 1573.2,-995.4 1573.2,-959.8 1247.21,-959.8"/>
<polygon fill="none" stroke="black" points="1247.21,-959.8 1247.21,-995.4 1573.2,-995.4 1573.2,-959.8 1247.21,-959.8"/>
<text text-anchor="start" x="1254.21" y="-973.2" font-family="Arial Bold" font-size="18.00">public.push_subscriptions</text>
<text text-anchor="start" x="1441.71" y="-973.2" font-family="Arial" font-size="14.00">    </text>
<text text-anchor="start" x="1472.82" y="-973.2" font-family="Arial" font-size="14.00" fill="#666666">[BASE TABLE]</text>
<polygon fill="none" stroke="black" points="1247.21,-929 1247.21,-959.8 1573.2,-959.8 1573.2,-929 1247.21,-929"/>
<text text-anchor="start" x="1254.21" y="-941.2" font-family="Arial" font-size="14.00">id </text>
<text text-anchor="start" x="1269" y="-941.2" font-family="Arial" font-size="14.00" fill="#666666">[uuid]</text>
<polygon fill="none" stroke="black" points="1247.21,-898.2 1247.21,-929 1573.2,-929 1573.2,-898.2 1247.21,-898.2"/>
<text text-anchor="start" x="1254.21" y="-910.4" font-family="Arial" font-size="14.00">user_id </text>
<text text-anchor="start" x="1304.02" y="-910.4" font-family="Arial" font-size="14.00" fill="#666666">[varchar(255)]</text>
<polygon fill="none" stroke="black" points="1247.21,-867.4 1247.21,-898.2 1573.2,-898.2 1573.2,-867.4 1247.21,-867.4"/>
<text text-anchor="start" x="1254.21" y="-879.6" font-family="Arial" font-size="14.00">endpoint </text>
<text text-anchor="start" x="1311.82" y="-879.6" font-family="Arial" font-size="14.00" fill="#666666">[text]</text>
<polygon fill="none" stroke="black" points="1247.21,-836.6 1247.21,-867.4 1573.2,-867.4 1573.2,-836.6 1247.21,-836.6"/>
<text text-anchor="start" x="1254.21" y="-848.8" font-family="Arial" font-size="14.00">p256dh </text>
<text text-anchor="start" x="1304.82" y="-848.8" font-family="Arial" font-size="14.00" fill="#666666">[text]</text>
<polygon fill="none" stroke="black" points="1247.21,-805.8 1247.21,-836.6 1573.2,-836.6 1573.2,-805.8 1247.21,-805.8"/>
<text text-anchor="start" x="1254.21" y="-818" font-family="Arial" font-size="14.00">auth </text>
<text text-anchor="start" x="1285.35" y="-818" font-family="Arial" font-size="14.00" fill="#666666">[text]</text>
<polygon fill="none" stroke="black" points="1247.21,-775 1247.21,-805.8 1573.2,-805.8 1573.2,-775 1247.21,-775"/>
<text text-anchor="start" x="1254.21" y="-787.2" font-family="Arial" font-size="14.00">created_at </text>
<text text-anchor="start" x="1324.26" y="-787.2" font-family="Arial" font-size="14.00" fill="#666666">[timestamp with time zone]</text>
</g>
<!-- public.push_subscriptions&#45;&gt;public.users -->
<g id="edge6" class="edge">
<title>public.push_subscriptions:user_id&#45;&gt;public.users:id</title>
<path fill="none" stroke="black" d="M1235.84,-913.05C1160.9,-904.58 1220.09,-799.57 1195.2,-716.4 1189.27,-696.56 1155.8,-540 1135.09,-540"/>
<polygon fill="black" stroke="black" points="1235.89,-913.05 1245.64,-918.08 1241.22,-913.34 1245.54,-913.56 1245.54,-913.56 1245.54,-913.56 1241.22,-913.34 1246.11,-909.09 1235.89,-913.05"/>
<text text-anchor="start" x="1075.18" y="-897.6" font-family="Arial" font-size="10.00">FOREIGN KEY (user_id) REFERENCES users(id)</text>
</g>
<!-- public.reactions -->
<g id="node8" class="node">
<title>public.reactions</title>
<polygon fill="#efefef" stroke="none" points="517.73,-944.4 517.73,-980 770.68,-980 770.68,-944.4 517.73,-944.4"/>
<polygon fill="none" stroke="black" points="517.73,-944.4 517.73,-980 770.68,-980 770.68,-944.4 517.73,-944.4"/>
<text text-anchor="start" x="524.73" y="-957.8" font-family="Arial Bold" font-size="18.00">public.reactions</text>
<text text-anchor="start" x="639.19" y="-957.8" font-family="Arial" font-size="14.00">    </text>
<text text-anchor="start" x="670.31" y="-957.8" font-family="Arial" font-size="14.00" fill="#666666">[BASE TABLE]</text>
<polygon fill="none" stroke="black" points="517.73,-913.6 517.73,-944.4 770.68,-944.4 770.68,-913.6 517.73,-913.6"/>
<text text-anchor="start" x="524.73" y="-925.8" font-family="Arial" font-size="14.00">id </text>
<text text-anchor="start" x="539.51" y="-925.8" font-family="Arial" font-size="14.00" fill="#666666">[uuid]</text>
<polygon fill="none" stroke="black" points="517.73,-882.8 517.73,-913.6 770.68,-913.6 770.68,-882.8 517.73,-882.8"/>
<text text-anchor="start" x="524.73" y="-895" font-family="Arial" font-size="14.00">message_id </text>
<text text-anchor="start" x="604.11" y="-895" font-family="Arial" font-size="14.00" fill="#666666">[uuid]</text>
<polygon fill="none" stroke="black" points="517.73,-852 517.73,-882.8 770.68,-882.8 770.68,-852 517.73,-852"/>
<text text-anchor="start" x="524.73" y="-864.2" font-family="Arial" font-size="14.00">user_id </text>
<text text-anchor="start" x="574.54" y="-864.2" font-family="Arial" font-size="14.00" fill="#666666">[varchar(255)]</text>
<polygon fill="none" stroke="black" points="517.73,-821.2 517.73,-852 770.68,-852 770.68,-821.2 517.73,-821.2"/>
<text text-anchor="start" x="524.73" y="-833.4" font-family="Arial" font-size="14.00">emoji </text>
<text text-anchor="start" x="562.07" y="-833.4" font-family="Arial" font-size="14.00" fill="#666666">[varchar(10)]</text>
<polygon fill="none" stroke="black" points="517.73,-790.4 517.73,-821.2 770.68,-821.2 770.68,-790.4 517.73,-790.4"/>
<text text-anchor="start" x="524.73" y="-802.6" font-family="Arial" font-size="14.00">created_at </text>
<text text-anchor="start" x="594.78" y="-802.6" font-family="Arial" font-size="14.00" fill="#666666">[timestamp with time zone]</text>
</g>
<!-- public.reactions&#45;&gt;public.chat_messages -->
<g id="edge7" class="edge">
<title>public.reactions:message_id&#45;&gt;public.chat_messages:id</title>
<path fill="none" stroke="black" d="M506.55,-897.34C452.59,-887.6 478.64,-797.17 517.73,-747.2 591.76,-652.57 705.46,-774.88 779.67,-680.4 805.54,-647.47 822.54,-586.2 780.67,-586.2"/>
<polygon fill="black" stroke="black" points="506.43,-897.33 516.02,-902.66 511.75,-897.78 516.06,-898.14 516.06,-898.14 516.06,-898.14 511.75,-897.78 516.77,-893.69 506.43,-897.33"/>
<text text-anchor="start" x="316.39" y="-882.2" font-family="Arial" font-size="10.00">FOREIGN KEY (message_id) REFERENCES chat_messages(id) ON DELETE CASCADE</text>
</g>
<!-- public.reactions&#45;&gt;public.users -->
<g id="edge8" class="edge">
<title>public.reactions:user_id&#45;&gt;public.users:id</title>
<path fill="none" stroke="black" d="M775.28,-857.6C794.34,-803.13 882.24,-540 883.32,-540"/>
<polygon fill="black" stroke="black" points="775.25,-857.7 767.57,-865.53 773.4,-862.71 771.91,-866.77 771.91,-866.77 771.91,-866.77 773.4,-862.71 776.02,-868.64 775.25,-857.7"/>
<text text-anchor="start" x="778.68" y="-877.4" font-family="Arial" font-size="10.00">FOREIGN KEY (user_id) REFERENCES users(id)</text>
</g>
</g>
</svg>
