<?xml version="1.0" encoding="UTF-8" standalone="no"?>
<!DOCTYPE svg PUBLIC "-//W3C//DTD SVG 1.1//EN"
 "http://www.w3.org/Graphics/SVG/1.1/DTD/svg11.dtd">
<!-- Generated by graphviz version 12.1.2 (20240928.0832)
 -->
<!-- Title: public.chat_rooms Pages: 1 -->
<svg width="868pt" height="694pt"
 viewBox="0.00 0.00 868.22 694.40" xmlns="http://www.w3.org/2000/svg" xmlns:xlink="http://www.w3.org/1999/xlink">
<g id="graph0" class="graph" transform="scale(1 1) rotate(0) translate(4 690.4)">
<title>public.chat_rooms</title>
<polygon fill="white" stroke="none" points="-4,4 -4,-690.4 864.22,-690.4 864.22,4 -4,4"/>
<!-- public.chat_rooms -->
<g id="node1" class="node">
<title>public.chat_rooms</title>
<polygon fill="#efefef" stroke="none" points="295.63,-231 295.63,-266.6 567.59,-266.6 567.59,-231 295.63,-231"/>
<polygon fill="none" stroke="black" points="295.63,-231 295.63,-266.6 567.59,-266.6 567.59,-231 295.63,-231"/>
<text text-anchor="start" x="302.63" y="-244.4" font-family="Arial Bold" font-size="18.00">public.chat_rooms</text>
<text text-anchor="start" x="436.1" y="-244.4" font-family="Arial" font-size="14.00">    </text>
<text text-anchor="start" x="467.22" y="-244.4" font-family="Arial" font-size="14.00" fill="#666666">[BASE TABLE]</text>
<polygon fill="none" stroke="black" points="295.63,-200.2 295.63,-231 567.59,-231 567.59,-200.2 295.63,-200.2"/>
<text text-anchor="start" x="302.63" y="-212.4" font-family="Arial" font-size="14.00">id </text>
<text text-anchor="start" x="317.42" y="-212.4" font-family="Arial" font-size="14.00" fill="#666666">[uuid]</text>
<polygon fill="none" stroke="black" points="295.63,-169.4 295.63,-200.2 567.59,-200.2 567.59,-169.4 295.63,-169.4"/>
<text text-anchor="start" x="302.63" y="-181.6" font-family="Arial" font-size="14.00">name </text>
<text text-anchor="start" x="341.54" y="-181.6" font-family="Arial" font-size="14.00" fill="#666666">[varchar(100)]</text>
<polygon fill="none" stroke="black" points="295.63,-138.6 295.63,-169.4 567.59,-169.4 567.59,-138.6 295.63,-138.6"/>
<text text-anchor="start" x="302.63" y="-150.8" font-family="Arial" font-size="14.00">description </text>
<text text-anchor="start" x="374.22" y="-150.8" font-family="Arial" font-size="14.00" fill="#666666">[varchar(500)]</text>
<polygon fill="none" stroke="black" points="295.63,-107.8 295.63,-138.6 567.59,-138.6 567.59,-107.8 295.63,-107.8"/>
<text text-anchor="start" x="302.63" y="-120" font-family="Arial" font-size="14.00">created_by </text>
<text text-anchor="start" x="375.79" y="-120" font-family="Arial" font-size="14.00" fill="#666666">[varchar(255)]</text>
<polygon fill="none" stroke="black" points="295.63,-77 295.63,-107.8 567.59,-107.8 567.59,-77 295.63,-77"/>
<text text-anchor="start" x="302.63" y="-89.2" font-family="Arial" font-size="14.00">created_at </text>
<text text-anchor="start" x="372.68" y="-89.2" font-family="Arial" font-size="14.00" fill="#666666">[timestamp with time zone]</text>
<polygon fill="none" stroke="black" points="295.63,-46.2 295.63,-77 567.59,-77 567.59,-46.2 295.63,-46.2"/>
<text text-anchor="start" x="302.63" y="-58.4" font-family="Arial" font-size="14.00">updated_at </text>
<text text-anchor="start" x="376.59" y="-58.4" font-family="Arial" font-size="14.00" fill="#666666">[timestamp with time zone]</text>
<polygon fill="none" stroke="black" stroke-width="3" points="294.13,-44.7 294.13,-268.1 569.09,-268.1 569.09,-44.7 294.13,-44.7"/>
</g>
<!-- public.chat_messages -->
<g id="node2" class="node">
<title>public.chat_messages</title>
<polygon fill="#efefef" stroke="none" points="83.14,-607.6 83.14,-643.2 378.08,-643.2 378.08,-607.6 83.14,-607.6"/>
<polygon fill="none" stroke="black" points="83.14,-607.6 83.14,-643.2 378.08,-643.2 378.08,-607.6 83.14,-607.6"/>
<text text-anchor="start" x="90.14" y="-621" font-family="Arial Bold" font-size="18.00">public.chat_messages</text>
<text text-anchor="start" x="246.59" y="-621" font-family="Arial" font-size="14.00">    </text>
<text text-anchor="start" x="277.71" y="-621" font-family="Arial" font-size="14.00" fill="#666666">[BASE TABLE]</text>
<polygon fill="none" stroke="black" points="83.14,-576.8 83.14,-607.6 378.08,-607.6 378.08,-576.8 83.14,-576.8"/>
<text text-anchor="start" x="90.14" y="-589" font-family="Arial" font-size="14.00">id </text>
<text text-anchor="start" x="104.93" y="-589" font-family="Arial" font-size="14.00" fill="#666666">[uuid]</text>
<polygon fill="none" stroke="black" points="83.14,-546 83.14,-576.8 378.08,-576.8 378.08,-546 83.14,-546"/>
<text text-anchor="start" x="90.14" y="-558.2" font-family="Arial" font-size="14.00">room_id </text>
<text text-anchor="start" x="144.61" y="-558.2" font-family="Arial" font-size="14.00" fill="#666666">[uuid]</text>
<polygon fill="none" stroke="black" points="83.14,-515.2 83.14,-546 378.08,-546 378.08,-515.2 83.14,-515.2"/>
<text text-anchor="start" x="90.14" y="-527.4" font-family="Arial" font-size="14.00">sender_id </text>
<text text-anchor="start" x="155.52" y="-527.4" font-family="Arial" font-size="14.00" fill="#666666">[varchar(255)]</text>
<polygon fill="none" stroke="black" points="83.14,-484.4 83.14,-515.2 378.08,-515.2 378.08,-484.4 83.14,-484.4"/>
<text text-anchor="start" x="90.14" y="-496.6" font-family="Arial" font-size="14.00">sender_name </text>
<text text-anchor="start" x="179.64" y="-496.6" font-family="Arial" font-size="14.00" fill="#666666">[varchar(100)]</text>
<polygon fill="none" stroke="black" points="83.14,-453.6 83.14,-484.4 378.08,-484.4 378.08,-453.6 83.14,-453.6"/>
<text text-anchor="start" x="90.14" y="-465.8" font-family="Arial" font-size="14.00">content </text>
<text text-anchor="start" x="139.95" y="-465.8" font-family="Arial" font-size="14.00" fill="#666666">[text]</text>
<polygon fill="none" stroke="black" points="83.14,-422.8 83.14,-453.6 378.08,-453.6 378.08,-422.8 83.14,-422.8"/>
<text text-anchor="start" x="90.14" y="-435" font-family="Arial" font-size="14.00">message_type </text>
<text text-anchor="start" x="185.08" y="-435" font-family="Arial" font-size="14.00" fill="#666666">[varchar(20)]</text>
<polygon fill="none" stroke="black" points="83.14,-392 83.14,-422.8 378.08,-422.8 378.08,-392 83.14,-392"/>
<text text-anchor="start" x="90.14" y="-404.2" font-family="Arial" font-size="14.00">created_at </text>
<text text-anchor="start" x="160.19" y="-404.2" font-family="Arial" font-size="14.00" fill="#666666">[timestamp with time zone]</text>
</g>
<!-- public.chat_messages&#45;&gt;public.chat_rooms -->
<g id="edge1" class="edge">
<title>public.chat_messages:room_id&#45;&gt;public.chat_rooms:id</title>
<path fill="none" stroke="black" d="M388.91,-558.38C422.82,-535.16 402.02,-385.19 378.08,-348.8 356.11,-315.4 317.7,-346.14 295.63,-312.8 271.79,-276.77 251.43,-215.6 294.63,-215.6"/>
<polygon fill="black" stroke="black" points="388.96,-558.36 378.08,-557 383.86,-559.93 379.72,-561.2 379.72,-561.2 379.72,-561.2 383.86,-559.93 380.73,-565.6 388.96,-558.36"/>
<text text-anchor="start" x="7" y="-571.4" font-family="Arial" font-size="10.00">FOREIGN KEY (room_id) REFERENCES chat_rooms(id) ON DELETE CASCADE</text>
</g>
<!-- public.room_members -->
<g id="node3" class="node">
<title>public.room_members</title>
<polygon fill="#efefef" stroke="none" points="482.13,-576.8 482.13,-612.4 783.09,-612.4 783.09,-576.8 482.13,-576.8"/>
<polygon fill="none" stroke="black" points="482.13,-576.8 482.13,-612.4 783.09,-612.4 783.09,-576.8 482.13,-576.8"/>
<text text-anchor="start" x="489.13" y="-590.2" font-family="Arial Bold" font-size="18.00">public.room_members</text>
<text text-anchor="start" x="651.6" y="-590.2" font-family="Arial" font-size="14.00">    </text>
<text text-anchor="start" x="682.72" y="-590.2" font-family="Arial" font-size="14.00" fill="#666666">[BASE TABLE]</text>
<polygon fill="none" stroke="black" points="482.13,-546 482.13,-576.8 783.09,-576.8 783.09,-546 482.13,-546"/>
<text text-anchor="start" x="489.13" y="-558.2" font-family="Arial" font-size="14.00">room_id </text>
<text text-anchor="start" x="543.6" y="-558.2" font-family="Arial" font-size="14.00" fill="#666666">[uuid]</text>
<polygon fill="none" stroke="black" points="482.13,-515.2 482.13,-546 783.09,-546 783.09,-515.2 482.13,-515.2"/>
<text text-anchor="start" x="489.13" y="-527.4" font-family="Arial" font-size="14.00">user_id </text>
<text text-anchor="start" x="538.94" y="-527.4" font-family="Arial" font-size="14.00" fill="#666666">[varchar(255)]</text>
<polygon fill="none" stroke="black" points="482.13,-484.4 482.13,-515.2 783.09,-515.2 783.09,-484.4 482.13,-484.4"/>
<text text-anchor="start" x="489.13" y="-496.6" font-family="Arial" font-size="14.00">user_name </text>
<text text-anchor="start" x="563.06" y="-496.6" font-family="Arial" font-size="14.00" fill="#666666">[varchar(100)]</text>
<polygon fill="none" stroke="black" points="482.13,-453.6 482.13,-484.4 783.09,-484.4 783.09,-453.6 482.13,-453.6"/>
<text text-anchor="start" x="489.13" y="-465.8" font-family="Arial" font-size="14.00">role </text>
<text text-anchor="start" x="516.37" y="-465.8" font-family="Arial" font-size="14.00" fill="#666666">[varchar(20)]</text>
<polygon fill="none" stroke="black" points="482.13,-422.8 482.13,-453.6 783.09,-453.6 783.09,-422.8 482.13,-422.8"/>
<text text-anchor="start" x="489.13" y="-435" font-family="Arial" font-size="14.00">joined_at </text>
<text text-anchor="start" x="549.85" y="-435" font-family="Arial" font-size="14.00" fill="#666666">[timestamp with time zone]</text>
</g>
<!-- public.room_members&#45;&gt;public.chat_rooms -->
<g id="edge2" class="edge">
<title>public.room_members:room_id&#45;&gt;public.chat_rooms:id</title>
<path fill="none" stroke="black" d="M471,-560.75C404.46,-551.66 448.12,-448.87 482.13,-379.6 503.38,-336.33 546.24,-356.02 567.59,-312.8 586.72,-274.07 611.79,-215.6 568.59,-215.6"/>
<polygon fill="black" stroke="black" points="470.82,-560.74 480.51,-565.87 476.14,-561.08 480.47,-561.36 480.47,-561.36 480.47,-561.36 476.14,-561.08 481.09,-556.89 470.82,-560.74"/>
<text text-anchor="start" x="488.13" y="-571.4" font-family="Arial" font-size="10.00">FOREIGN KEY (room_id) REFERENCES chat_rooms(id) ON DELETE CASCADE</text>
</g>
</g>
</svg>
