<?xml version="1.0" encoding="UTF-8" standalone="no"?>
<!DOCTYPE svg PUBLIC "-//W3C//DTD SVG 1.1//EN"
 "http://www.w3.org/Graphics/SVG/1.1/DTD/svg11.dtd">
<!-- Generated by graphviz version 12.1.2 (20240928.0832)
 -->
<!-- Title: public.friendships Pages: 1 -->
<svg width="566pt" height="571pt"
 viewBox="0.00 0.00 566.11 571.20" xmlns="http://www.w3.org/2000/svg" xmlns:xlink="http://www.w3.org/1999/xlink">
<g id="graph0" class="graph" transform="scale(1 1) rotate(0) translate(4 567.2)">
<title>public.friendships</title>
<polygon fill="white" stroke="none" points="-4,4 -4,-567.2 562.11,-567.2 562.11,4 -4,4"/>
<!-- public.friendships -->
<g id="node1" class="node">
<title>public.friendships</title>
<polygon fill="#efefef" stroke="none" points="46.2,-481.4 46.2,-517 314.17,-517 314.17,-481.4 46.2,-481.4"/>
<polygon fill="none" stroke="black" points="46.2,-481.4 46.2,-517 314.17,-517 314.17,-481.4 46.2,-481.4"/>
<text text-anchor="start" x="53.2" y="-494.8" font-family="Arial Bold" font-size="18.00">public.friendships</text>
<text text-anchor="start" x="182.68" y="-494.8" font-family="Arial" font-size="14.00">    </text>
<text text-anchor="start" x="213.8" y="-494.8" font-family="Arial" font-size="14.00" fill="#666666">[BASE TABLE]</text>
<polygon fill="none" stroke="black" points="46.2,-450.6 46.2,-481.4 314.17,-481.4 314.17,-450.6 46.2,-450.6"/>
<text text-anchor="start" x="53.2" y="-462.8" font-family="Arial" font-size="14.00">user_id </text>
<text text-anchor="start" x="103.01" y="-462.8" font-family="Arial" font-size="14.00" fill="#666666">[varchar(255)]</text>
<polygon fill="none" stroke="black" points="46.2,-419.8 46.2,-450.6 314.17,-450.6 314.17,-419.8 46.2,-419.8"/>
<text text-anchor="start" x="53.2" y="-432" font-family="Arial" font-size="14.00">friend_id </text>
<text text-anchor="start" x="110.79" y="-432" font-family="Arial" font-size="14.00" fill="#666666">[varchar(255)]</text>
<polygon fill="none" stroke="black" points="46.2,-389 46.2,-419.8 314.17,-419.8 314.17,-389 46.2,-389"/>
<text text-anchor="start" x="53.2" y="-401.2" font-family="Arial" font-size="14.00">status </text>
<text text-anchor="start" x="94.44" y="-401.2" font-family="Arial" font-size="14.00" fill="#666666">[varchar(20)]</text>
<polygon fill="none" stroke="black" points="46.2,-358.2 46.2,-389 314.17,-389 314.17,-358.2 46.2,-358.2"/>
<text text-anchor="start" x="53.2" y="-370.4" font-family="Arial" font-size="14.00">created_at </text>
<text text-anchor="start" x="123.25" y="-370.4" font-family="Arial" font-size="14.00" fill="#666666">[timestamp with time zone]</text>
<polygon fill="none" stroke="black" points="46.2,-327.4 46.2,-358.2 314.17,-358.2 314.17,-327.4 46.2,-327.4"/>
<text text-anchor="start" x="53.2" y="-339.6" font-family="Arial" font-size="14.00">updated_at </text>
<text text-anchor="start" x="127.16" y="-339.6" font-family="Arial" font-size="14.00" fill="#666666">[timestamp with time zone]</text>
<polygon fill="none" stroke="black" stroke-width="3" points="44.7,-325.9 44.7,-518.5 315.67,-518.5 315.67,-325.9 44.7,-325.9"/>
</g>
<!-- public.users -->
<g id="node2" class="node">
<title>public.users</title>
<polygon fill="#efefef" stroke="none" points="55.3,-166.4 55.3,-202 305.07,-202 305.07,-166.4 55.3,-166.4"/>
<polygon fill="none" stroke="black" points="55.3,-166.4 55.3,-202 305.07,-202 305.07,-166.4 55.3,-166.4"/>
<text text-anchor="start" x="74.7" y="-179.8" font-family="Arial Bold" font-size="18.00">public.users</text>
<text text-anchor="start" x="161.18" y="-179.8" font-family="Arial" font-size="14.00">    </text>
<text text-anchor="start" x="192.3" y="-179.8" font-family="Arial" font-size="14.00" fill="#666666">[BASE TABLE]</text>
<polygon fill="none" stroke="black" points="55.3,-135.6 55.3,-166.4 305.07,-166.4 305.07,-135.6 55.3,-135.6"/>
<text text-anchor="start" x="62.3" y="-147.8" font-family="Arial" font-size="14.00">id </text>
<text text-anchor="start" x="77.09" y="-147.8" font-family="Arial" font-size="14.00" fill="#666666">[varchar(255)]</text>
<polygon fill="none" stroke="black" points="55.3,-104.8 55.3,-135.6 305.07,-135.6 305.07,-104.8 55.3,-104.8"/>
<text text-anchor="start" x="62.3" y="-117" font-family="Arial" font-size="14.00">email </text>
<text text-anchor="start" x="99.64" y="-117" font-family="Arial" font-size="14.00" fill="#666666">[varchar(255)]</text>
<polygon fill="none" stroke="black" points="55.3,-74 55.3,-104.8 305.07,-104.8 305.07,-74 55.3,-74"/>
<text text-anchor="start" x="62.3" y="-86.2" font-family="Arial" font-size="14.00">display_name </text>
<text text-anchor="start" x="152.57" y="-86.2" font-family="Arial" font-size="14.00" fill="#666666">[varchar(100)]</text>
<polygon fill="none" stroke="black" points="55.3,-43.2 55.3,-74 305.07,-74 305.07,-43.2 55.3,-43.2"/>
<text text-anchor="start" x="62.3" y="-55.4" font-family="Arial" font-size="14.00">created_at </text>
<text text-anchor="start" x="132.35" y="-55.4" font-family="Arial" font-size="14.00" fill="#666666">[timestamp with time zone]</text>
</g>
<!-- public.friendships&#45;&gt;public.users -->
<g id="edge1" class="edge">
<title>public.friendships:user_id&#45;&gt;public.users:id</title>
<path fill="none" stroke="black" d="M325.23,-463.65C384.12,-434.82 372.54,-151 306.07,-151"/>
<polygon fill="black" stroke="black" points="325.23,-463.64 314.47,-461.54 320.04,-464.86 315.82,-465.85 315.82,-465.85 315.82,-465.85 320.04,-464.86 316.52,-470.31 325.23,-463.64"/>
<text text-anchor="start" x="322.17" y="-476" font-family="Arial" font-size="10.00">FOREIGN KEY (user_id) REFERENCES users(id)</text>
</g>
<!-- public.friendships&#45;&gt;public.users -->
<g id="edge2" class="edge">
<title>public.friendships:friend_id&#45;&gt;public.users:id</title>
<path fill="none" stroke="black" d="M325.21,-432.57C377.15,-403.92 365.68,-151 306.07,-151"/>
<polygon fill="black" stroke="black" points="325.17,-432.58 314.35,-430.76 320.01,-433.93 315.82,-435.03 315.82,-435.03 315.82,-435.03 320.01,-433.93 316.63,-439.47 325.17,-432.58"/>
<text text-anchor="start" x="322.17" y="-445.2" font-family="Arial" font-size="10.00">FOREIGN KEY (friend_id) REFERENCES users(id)</text>
</g>
</g>
</svg>
