<?xml version="1.0" encoding="UTF-8" standalone="no"?>
<!DOCTYPE svg PUBLIC "-//W3C//DTD SVG 1.1//EN"
 "http://www.w3.org/Graphics/SVG/1.1/DTD/svg11.dtd">
<!-- Generated by graphviz version 12.1.2 (20240928.0832)
 -->
<!-- Title: public.chat_messages Pages: 1 -->
<svg width="988pt" height="1068pt"
 viewBox="0.00 0.00 987.76 1068.00" xmlns="http://www.w3.org/2000/svg" xmlns:xlink="http://www.w3.org/1999/xlink">
<g id="graph0" class="graph" transform="scale(1 1) rotate(0) translate(4 1064)">
<title>public.chat_messages</title>
<polygon fill="white" stroke="none" points="-4,4 -4,-1064 983.76,-1064 983.76,4 -4,4"/>
<!-- public.chat_messages -->
<g id="node1" class="node">
<title>public.chat_messages</title>
<polygon fill="#efefef" stroke="none" points="304.73,-604.6 304.73,-640.2 599.67,-640.2 599.67,-604.6 304.73,-604.6"/>
<polygon fill="none" stroke="black" points="304.73,-604.6 304.73,-640.2 599.67,-640.2 599.67,-604.6 304.73,-604.6"/>
<text text-anchor="start" x="311.73" y="-618" font-family="Arial Bold" font-size="18.00">public.chat_messages</text>
<text text-anchor="start" x="468.19" y="-618" font-family="Arial" font-size="14.00">    </text>
<text text-anchor="start" x="499.3" y="-618" font-family="Arial" font-size="14.00" fill="#666666">[BASE TABLE]</text>
<polygon fill="none" stroke="black" points="304.73,-573.8 304.73,-604.6 599.67,-604.6 599.67,-573.8 304.73,-573.8"/>
<text text-anchor="start" x="311.73" y="-586" font-family="Arial" font-size="14.00">id </text>
<text text-anchor="start" x="326.52" y="-586" font-family="Arial" font-size="14.00" fill="#666666">[uuid]</text>
<polygon fill="none" stroke="black" points="304.73,-543 304.73,-573.8 599.67,-573.8 599.67,-543 304.73,-543"/>
<text text-anchor="start" x="311.73" y="-555.2" font-family="Arial" font-size="14.00">room_id </text>
<text text-anchor="start" x="366.2" y="-555.2" font-family="Arial" font-size="14.00" fill="#666666">[uuid]</text>
<polygon fill="none" stroke="black" points="304.73,-512.2 304.73,-543 599.67,-543 599.67,-512.2 304.73,-512.2"/>
<text text-anchor="start" x="311.73" y="-524.4" font-family="Arial" font-size="14.00">sender_id </text>
<text text-anchor="start" x="377.11" y="-524.4" font-family="Arial" font-size="14.00" fill="#666666">[varchar(255)]</text>
<polygon fill="none" stroke="black" points="304.73,-481.4 304.73,-512.2 599.67,-512.2 599.67,-481.4 304.73,-481.4"/>
<text text-anchor="start" x="311.73" y="-493.6" font-family="Arial" font-size="14.00">sender_name </text>
<text text-anchor="start" x="401.23" y="-493.6" font-family="Arial" font-size="14.00" fill="#666666">[varchar(100)]</text>
<polygon fill="none" stroke="black" points="304.73,-450.6 304.73,-481.4 599.67,-481.4 599.67,-450.6 304.73,-450.6"/>
<text text-anchor="start" x="311.73" y="-462.8" font-family="Arial" font-size="14.00">content </text>
<text text-anchor="start" x="361.54" y="-462.8" font-family="Arial" font-size="14.00" fill="#666666">[text]</text>
<polygon fill="none" stroke="black" points="304.73,-419.8 304.73,-450.6 599.67,-450.6 599.67,-419.8 304.73,-419.8"/>
<text text-anchor="start" x="311.73" y="-432" font-family="Arial" font-size="14.00">message_type </text>
<text text-anchor="start" x="406.68" y="-432" font-family="Arial" font-size="14.00" fill="#666666">[varchar(20)]</text>
<polygon fill="none" stroke="black" points="304.73,-389 304.73,-419.8 599.67,-419.8 599.67,-389 304.73,-389"/>
<text text-anchor="start" x="311.73" y="-401.2" font-family="Arial" font-size="14.00">created_at </text>
<text text-anchor="start" x="381.78" y="-401.2" font-family="Arial" font-size="14.00" fill="#666666">[timestamp with time zone]</text>
<polygon fill="none" stroke="black" stroke-width="3" points="303.23,-387.5 303.23,-641.7 601.17,-641.7 601.17,-387.5 303.23,-387.5"/>
</g>
<!-- public.chat_rooms -->
<g id="node4" class="node">
<title>public.chat_rooms</title>
<polygon fill="#efefef" stroke="none" points="316.22,-228 316.22,-263.6 588.18,-263.6 588.18,-228 316.22,-228"/>
<polygon fill="none" stroke="black" points="316.22,-228 316.22,-263.6 588.18,-263.6 588.18,-228 316.22,-228"/>
<text text-anchor="start" x="323.22" y="-241.4" font-family="Arial Bold" font-size="18.00">public.chat_rooms</text>
<text text-anchor="start" x="456.69" y="-241.4" font-family="Arial" font-size="14.00">    </text>
<text text-anchor="start" x="487.81" y="-241.4" font-family="Arial" font-size="14.00" fill="#666666">[BASE TABLE]</text>
<polygon fill="none" stroke="black" points="316.22,-197.2 316.22,-228 588.18,-228 588.18,-197.2 316.22,-197.2"/>
<text text-anchor="start" x="323.22" y="-209.4" font-family="Arial" font-size="14.00">id </text>
<text text-anchor="start" x="338.01" y="-209.4" font-family="Arial" font-size="14.00" fill="#666666">[uuid]</text>
<polygon fill="none" stroke="black" points="316.22,-166.4 316.22,-197.2 588.18,-197.2 588.18,-166.4 316.22,-166.4"/>
<text text-anchor="start" x="323.22" y="-178.6" font-family="Arial" font-size="14.00">name </text>
<text text-anchor="start" x="362.13" y="-178.6" font-family="Arial" font-size="14.00" fill="#666666">[varchar(100)]</text>
<polygon fill="none" stroke="black" points="316.22,-135.6 316.22,-166.4 588.18,-166.4 588.18,-135.6 316.22,-135.6"/>
<text text-anchor="start" x="323.22" y="-147.8" font-family="Arial" font-size="14.00">description </text>
<text text-anchor="start" x="394.82" y="-147.8" font-family="Arial" font-size="14.00" fill="#666666">[varchar(500)]</text>
<polygon fill="none" stroke="black" points="316.22,-104.8 316.22,-135.6 588.18,-135.6 588.18,-104.8 316.22,-104.8"/>
<text text-anchor="start" x="323.22" y="-117" font-family="Arial" font-size="14.00">created_by </text>
<text text-anchor="start" x="396.38" y="-117" font-family="Arial" font-size="14.00" fill="#666666">[varchar(255)]</text>
<polygon fill="none" stroke="black" points="316.22,-74 316.22,-104.8 588.18,-104.8 588.18,-74 316.22,-74"/>
<text text-anchor="start" x="323.22" y="-86.2" font-family="Arial" font-size="14.00">created_at </text>
<text text-anchor="start" x="393.27" y="-86.2" font-family="Arial" font-size="14.00" fill="#666666">[timestamp with time zone]</text>
<polygon fill="none" stroke="black" points="316.22,-43.2 316.22,-74 588.18,-74 588.18,-43.2 316.22,-43.2"/>
<text text-anchor="start" x="323.22" y="-55.4" font-family="Arial" font-size="14.00">updated_at </text>
<text text-anchor="start" x="397.18" y="-55.4" font-family="Arial" font-size="14.00" fill="#666666">[timestamp with time zone]</text>
</g>
<!-- public.chat_messages&#45;&gt;public.chat_rooms -->
<g id="edge3" class="edge">
<title>public.chat_messages:room_id&#45;&gt;public.chat_rooms:id</title>
<path fill="none" stroke="black" d="M610.79,-557.88C753.86,-543.04 739.5,-212.6 589.18,-212.6"/>
<polygon fill="black" stroke="black" points="611,-557.87 600.78,-553.89 605.67,-558.15 601.34,-558.37 601.34,-558.37 601.34,-558.37 605.67,-558.15 601.24,-562.88 611,-557.87"/>
<text text-anchor="start" x="607.67" y="-568.4" font-family="Arial" font-size="10.00">FOREIGN KEY (room_id) REFERENCES chat_rooms(id) ON DELETE CASCADE</text>
</g>
<!-- public.file_attachments -->
<g id="node2" class="node">
<title>public.file_attachments</title>
<polygon fill="#efefef" stroke="none" points="106.74,-981.2 106.74,-1016.8 413.67,-1016.8 413.67,-981.2 106.74,-981.2"/>
<polygon fill="none" stroke="black" points="106.74,-981.2 106.74,-1016.8 413.67,-1016.8 413.67,-981.2 106.74,-981.2"/>
<text text-anchor="start" x="113.74" y="-994.6" font-family="Arial Bold" font-size="18.00">public.file_attachments</text>
<text text-anchor="start" x="282.18" y="-994.6" font-family="Arial" font-size="14.00">    </text>
<text text-anchor="start" x="313.3" y="-994.6" font-family="Arial" font-size="14.00" fill="#666666">[BASE TABLE]</text>
<polygon fill="none" stroke="black" points="106.74,-950.4 106.74,-981.2 413.67,-981.2 413.67,-950.4 106.74,-950.4"/>
<text text-anchor="start" x="113.74" y="-962.6" font-family="Arial" font-size="14.00">id </text>
<text text-anchor="start" x="128.52" y="-962.6" font-family="Arial" font-size="14.00" fill="#666666">[uuid]</text>
<polygon fill="none" stroke="black" points="106.74,-919.6 106.74,-950.4 413.67,-950.4 413.67,-919.6 106.74,-919.6"/>
<text text-anchor="start" x="113.74" y="-931.8" font-family="Arial" font-size="14.00">message_id </text>
<text text-anchor="start" x="193.12" y="-931.8" font-family="Arial" font-size="14.00" fill="#666666">[uuid]</text>
<polygon fill="none" stroke="black" points="106.74,-888.8 106.74,-919.6 413.67,-919.6 413.67,-888.8 106.74,-888.8"/>
<text text-anchor="start" x="113.74" y="-901" font-family="Arial" font-size="14.00">file_name </text>
<text text-anchor="start" x="178.33" y="-901" font-family="Arial" font-size="14.00" fill="#666666">[varchar(255)]</text>
<polygon fill="none" stroke="black" points="106.74,-858 106.74,-888.8 413.67,-888.8 413.67,-858 106.74,-858"/>
<text text-anchor="start" x="113.74" y="-870.2" font-family="Arial" font-size="14.00">file_size </text>
<text text-anchor="start" x="168.21" y="-870.2" font-family="Arial" font-size="14.00" fill="#666666">[bigint]</text>
<polygon fill="none" stroke="black" points="106.74,-827.2 106.74,-858 413.67,-858 413.67,-827.2 106.74,-827.2"/>
<text text-anchor="start" x="113.74" y="-839.4" font-family="Arial" font-size="14.00">content_type </text>
<text text-anchor="start" x="197.8" y="-839.4" font-family="Arial" font-size="14.00" fill="#666666">[varchar(100)]</text>
<polygon fill="none" stroke="black" points="106.74,-796.4 106.74,-827.2 413.67,-827.2 413.67,-796.4 106.74,-796.4"/>
<text text-anchor="start" x="113.74" y="-808.6" font-family="Arial" font-size="14.00">s3_key </text>
<text text-anchor="start" x="161.99" y="-808.6" font-family="Arial" font-size="14.00" fill="#666666">[varchar(500)]</text>
<polygon fill="none" stroke="black" points="106.74,-765.6 106.74,-796.4 413.67,-796.4 413.67,-765.6 106.74,-765.6"/>
<text text-anchor="start" x="113.74" y="-777.8" font-family="Arial" font-size="14.00">created_at </text>
<text text-anchor="start" x="183.79" y="-777.8" font-family="Arial" font-size="14.00" fill="#666666">[timestamp with time zone]</text>
</g>
<!-- public.file_attachments&#45;&gt;public.chat_messages -->
<g id="edge1" class="edge">
<title>public.file_attachments:message_id&#45;&gt;public.chat_messages:id</title>
<path fill="none" stroke="black" d="M424.53,-931.96C458.67,-908.59 439.26,-757.64 413.67,-722.4 383.7,-681.14 334.81,-727.57 304.73,-686.4 279.25,-651.52 260.53,-589.2 303.73,-589.2"/>
<polygon fill="black" stroke="black" points="424.54,-931.95 413.66,-930.6 419.45,-933.52 415.31,-934.8 415.31,-934.8 415.31,-934.8 419.45,-933.52 416.32,-939.2 424.54,-931.95"/>
<text text-anchor="start" x="7" y="-945" font-family="Arial" font-size="10.00">FOREIGN KEY (message_id) REFERENCES chat_messages(id) ON DELETE CASCADE</text>
</g>
<!-- public.reactions -->
<g id="node3" class="node">
<title>public.reactions</title>
<polygon fill="#efefef" stroke="none" points="517.73,-950.4 517.73,-986 770.68,-986 770.68,-950.4 517.73,-950.4"/>
<polygon fill="none" stroke="black" points="517.73,-950.4 517.73,-986 770.68,-986 770.68,-950.4 517.73,-950.4"/>
<text text-anchor="start" x="524.73" y="-963.8" font-family="Arial Bold" font-size="18.00">public.reactions</text>
<text text-anchor="start" x="639.19" y="-963.8" font-family="Arial" font-size="14.00">    </text>
<text text-anchor="start" x="670.31" y="-963.8" font-family="Arial" font-size="14.00" fill="#666666">[BASE TABLE]</text>
<polygon fill="none" stroke="black" points="517.73,-919.6 517.73,-950.4 770.68,-950.4 770.68,-919.6 517.73,-919.6"/>
<text text-anchor="start" x="524.73" y="-931.8" font-family="Arial" font-size="14.00">id </text>
<text text-anchor="start" x="539.51" y="-931.8" font-family="Arial" font-size="14.00" fill="#666666">[uuid]</text>
<polygon fill="none" stroke="black" points="517.73,-888.8 517.73,-919.6 770.68,-919.6 770.68,-888.8 517.73,-888.8"/>
<text text-anchor="start" x="524.73" y="-901" font-family="Arial" font-size="14.00">message_id </text>
<text text-anchor="start" x="604.11" y="-901" font-family="Arial" font-size="14.00" fill="#666666">[uuid]</text>
<polygon fill="none" stroke="black" points="517.73,-858 517.73,-888.8 770.68,-888.8 770.68,-858 517.73,-858"/>
<text text-anchor="start" x="524.73" y="-870.2" font-family="Arial" font-size="14.00">user_id </text>
<text text-anchor="start" x="574.54" y="-870.2" font-family="Arial" font-size="14.00" fill="#666666">[varchar(255)]</text>
<polygon fill="none" stroke="black" points="517.73,-827.2 517.73,-858 770.68,-858 770.68,-827.2 517.73,-827.2"/>
<text text-anchor="start" x="524.73" y="-839.4" font-family="Arial" font-size="14.00">emoji </text>
<text text-anchor="start" x="562.07" y="-839.4" font-family="Arial" font-size="14.00" fill="#666666">[varchar(10)]</text>
<polygon fill="none" stroke="black" points="517.73,-796.4 517.73,-827.2 770.68,-827.2 770.68,-796.4 517.73,-796.4"/>
<text text-anchor="start" x="524.73" y="-808.6" font-family="Arial" font-size="14.00">created_at </text>
<text text-anchor="start" x="594.78" y="-808.6" font-family="Arial" font-size="14.00" fill="#666666">[timestamp with time zone]</text>
</g>
<!-- public.reactions&#45;&gt;public.chat_messages -->
<g id="edge2" class="edge">
<title>public.reactions:message_id&#45;&gt;public.chat_messages:id</title>
<path fill="none" stroke="black" d="M506.33,-903.35C454.01,-894.05 490.38,-810.3 517.73,-753.2 538.03,-710.82 579.3,-728.74 599.67,-686.4 618.41,-647.47 643.88,-589.2 600.67,-589.2"/>
<polygon fill="black" stroke="black" points="506.43,-903.36 516.03,-908.66 511.75,-903.79 516.06,-904.15 516.06,-904.15 516.06,-904.15 511.75,-903.79 516.76,-899.69 506.43,-903.36"/>
<text text-anchor="start" x="523.73" y="-914.2" font-family="Arial" font-size="10.00">FOREIGN KEY (message_id) REFERENCES chat_messages(id) ON DELETE CASCADE</text>
</g>
</g>
</svg>
