<?xml version="1.0" encoding="UTF-8" standalone="no"?>
<!DOCTYPE svg PUBLIC "-//W3C//DTD SVG 1.1//EN"
 "http://www.w3.org/Graphics/SVG/1.1/DTD/svg11.dtd">
<!-- Generated by graphviz version 12.1.2 (20240928.0832)
 -->
<!-- Title: public.reactions Pages: 1 -->
<svg width="915pt" height="664pt"
 viewBox="0.00 0.00 915.00 663.60" xmlns="http://www.w3.org/2000/svg" xmlns:xlink="http://www.w3.org/1999/xlink">
<g id="graph0" class="graph" transform="scale(1 1) rotate(0) translate(4 659.6)">
<title>public.reactions</title>
<polygon fill="white" stroke="none" points="-4,4 -4,-659.6 911,-659.6 911,4 -4,4"/>
<!-- public.reactions -->
<g id="node1" class="node">
<title>public.reactions</title>
<polygon fill="#efefef" stroke="none" points="415.67,-573.8 415.67,-609.4 668.62,-609.4 668.62,-573.8 415.67,-573.8"/>
<polygon fill="none" stroke="black" points="415.67,-573.8 415.67,-609.4 668.62,-609.4 668.62,-573.8 415.67,-573.8"/>
<text text-anchor="start" x="422.67" y="-587.2" font-family="Arial Bold" font-size="18.00">public.reactions</text>
<text text-anchor="start" x="537.13" y="-587.2" font-family="Arial" font-size="14.00">    </text>
<text text-anchor="start" x="568.25" y="-587.2" font-family="Arial" font-size="14.00" fill="#666666">[BASE TABLE]</text>
<polygon fill="none" stroke="black" points="415.67,-543 415.67,-573.8 668.62,-573.8 668.62,-543 415.67,-543"/>
<text text-anchor="start" x="422.67" y="-555.2" font-family="Arial" font-size="14.00">id </text>
<text text-anchor="start" x="437.46" y="-555.2" font-family="Arial" font-size="14.00" fill="#666666">[uuid]</text>
<polygon fill="none" stroke="black" points="415.67,-512.2 415.67,-543 668.62,-543 668.62,-512.2 415.67,-512.2"/>
<text text-anchor="start" x="422.67" y="-524.4" font-family="Arial" font-size="14.00">message_id </text>
<text text-anchor="start" x="502.05" y="-524.4" font-family="Arial" font-size="14.00" fill="#666666">[uuid]</text>
<polygon fill="none" stroke="black" points="415.67,-481.4 415.67,-512.2 668.62,-512.2 668.62,-481.4 415.67,-481.4"/>
<text text-anchor="start" x="422.67" y="-493.6" font-family="Arial" font-size="14.00">user_id </text>
<text text-anchor="start" x="472.48" y="-493.6" font-family="Arial" font-size="14.00" fill="#666666">[varchar(255)]</text>
<polygon fill="none" stroke="black" points="415.67,-450.6 415.67,-481.4 668.62,-481.4 668.62,-450.6 415.67,-450.6"/>
<text text-anchor="start" x="422.67" y="-462.8" font-family="Arial" font-size="14.00">emoji </text>
<text text-anchor="start" x="460.01" y="-462.8" font-family="Arial" font-size="14.00" fill="#666666">[varchar(10)]</text>
<polygon fill="none" stroke="black" points="415.67,-419.8 415.67,-450.6 668.62,-450.6 668.62,-419.8 415.67,-419.8"/>
<text text-anchor="start" x="422.67" y="-432" font-family="Arial" font-size="14.00">created_at </text>
<text text-anchor="start" x="492.72" y="-432" font-family="Arial" font-size="14.00" fill="#666666">[timestamp with time zone]</text>
<polygon fill="none" stroke="black" stroke-width="3" points="414.17,-418.3 414.17,-610.9 670.12,-610.9 670.12,-418.3 414.17,-418.3"/>
</g>
<!-- public.chat_messages -->
<g id="node2" class="node">
<title>public.chat_messages</title>
<polygon fill="#efefef" stroke="none" points="206.67,-258.8 206.67,-294.4 501.62,-294.4 501.62,-258.8 206.67,-258.8"/>
<polygon fill="none" stroke="black" points="206.67,-258.8 206.67,-294.4 501.62,-294.4 501.62,-258.8 206.67,-258.8"/>
<text text-anchor="start" x="213.67" y="-272.2" font-family="Arial Bold" font-size="18.00">public.chat_messages</text>
<text text-anchor="start" x="370.13" y="-272.2" font-family="Arial" font-size="14.00">    </text>
<text text-anchor="start" x="401.24" y="-272.2" font-family="Arial" font-size="14.00" fill="#666666">[BASE TABLE]</text>
<polygon fill="none" stroke="black" points="206.67,-228 206.67,-258.8 501.62,-258.8 501.62,-228 206.67,-228"/>
<text text-anchor="start" x="213.67" y="-240.2" font-family="Arial" font-size="14.00">id </text>
<text text-anchor="start" x="228.46" y="-240.2" font-family="Arial" font-size="14.00" fill="#666666">[uuid]</text>
<polygon fill="none" stroke="black" points="206.67,-197.2 206.67,-228 501.62,-228 501.62,-197.2 206.67,-197.2"/>
<text text-anchor="start" x="213.67" y="-209.4" font-family="Arial" font-size="14.00">room_id </text>
<text text-anchor="start" x="268.14" y="-209.4" font-family="Arial" font-size="14.00" fill="#666666">[uuid]</text>
<polygon fill="none" stroke="black" points="206.67,-166.4 206.67,-197.2 501.62,-197.2 501.62,-166.4 206.67,-166.4"/>
<text text-anchor="start" x="213.67" y="-178.6" font-family="Arial" font-size="14.00">sender_id </text>
<text text-anchor="start" x="279.05" y="-178.6" font-family="Arial" font-size="14.00" fill="#666666">[varchar(255)]</text>
<polygon fill="none" stroke="black" points="206.67,-135.6 206.67,-166.4 501.62,-166.4 501.62,-135.6 206.67,-135.6"/>
<text text-anchor="start" x="213.67" y="-147.8" font-family="Arial" font-size="14.00">sender_name </text>
<text text-anchor="start" x="303.17" y="-147.8" font-family="Arial" font-size="14.00" fill="#666666">[varchar(100)]</text>
<polygon fill="none" stroke="black" points="206.67,-104.8 206.67,-135.6 501.62,-135.6 501.62,-104.8 206.67,-104.8"/>
<text text-anchor="start" x="213.67" y="-117" font-family="Arial" font-size="14.00">content </text>
<text text-anchor="start" x="263.49" y="-117" font-family="Arial" font-size="14.00" fill="#666666">[text]</text>
<polygon fill="none" stroke="black" points="206.67,-74 206.67,-104.8 501.62,-104.8 501.62,-74 206.67,-74"/>
<text text-anchor="start" x="213.67" y="-86.2" font-family="Arial" font-size="14.00">message_type </text>
<text text-anchor="start" x="308.62" y="-86.2" font-family="Arial" font-size="14.00" fill="#666666">[varchar(20)]</text>
<polygon fill="none" stroke="black" points="206.67,-43.2 206.67,-74 501.62,-74 501.62,-43.2 206.67,-43.2"/>
<text text-anchor="start" x="213.67" y="-55.4" font-family="Arial" font-size="14.00">created_at </text>
<text text-anchor="start" x="283.72" y="-55.4" font-family="Arial" font-size="14.00" fill="#666666">[timestamp with time zone]</text>
</g>
<!-- public.reactions&#45;&gt;public.chat_messages -->
<g id="edge1" class="edge">
<title>public.reactions:message_id&#45;&gt;public.chat_messages:id</title>
<path fill="none" stroke="black" d="M404.32,-526.75C349.67,-517.1 379.65,-427.35 415.67,-373.6 438.72,-339.19 478.49,-371.96 501.62,-337.6 524.99,-302.86 544.48,-243.4 502.62,-243.4"/>
<polygon fill="black" stroke="black" points="404.37,-526.75 413.97,-532.06 409.69,-527.19 414,-527.55 414,-527.55 414,-527.55 409.69,-527.19 414.7,-523.09 404.37,-526.75"/>
<text text-anchor="start" x="7" y="-537.6" font-family="Arial" font-size="10.00">FOREIGN KEY (message_id) REFERENCES chat_messages(id) ON DELETE CASCADE</text>
</g>
<!-- public.users -->
<g id="node3" class="node">
<title>public.users</title>
<polygon fill="#efefef" stroke="none" points="606.26,-212.6 606.26,-248.2 856.03,-248.2 856.03,-212.6 606.26,-212.6"/>
<polygon fill="none" stroke="black" points="606.26,-212.6 606.26,-248.2 856.03,-248.2 856.03,-212.6 606.26,-212.6"/>
<text text-anchor="start" x="625.66" y="-226" font-family="Arial Bold" font-size="18.00">public.users</text>
<text text-anchor="start" x="712.14" y="-226" font-family="Arial" font-size="14.00">    </text>
<text text-anchor="start" x="743.26" y="-226" font-family="Arial" font-size="14.00" fill="#666666">[BASE TABLE]</text>
<polygon fill="none" stroke="black" points="606.26,-181.8 606.26,-212.6 856.03,-212.6 856.03,-181.8 606.26,-181.8"/>
<text text-anchor="start" x="613.26" y="-194" font-family="Arial" font-size="14.00">id </text>
<text text-anchor="start" x="628.04" y="-194" font-family="Arial" font-size="14.00" fill="#666666">[varchar(255)]</text>
<polygon fill="none" stroke="black" points="606.26,-151 606.26,-181.8 856.03,-181.8 856.03,-151 606.26,-151"/>
<text text-anchor="start" x="613.26" y="-163.2" font-family="Arial" font-size="14.00">email </text>
<text text-anchor="start" x="650.6" y="-163.2" font-family="Arial" font-size="14.00" fill="#666666">[varchar(255)]</text>
<polygon fill="none" stroke="black" points="606.26,-120.2 606.26,-151 856.03,-151 856.03,-120.2 606.26,-120.2"/>
<text text-anchor="start" x="613.26" y="-132.4" font-family="Arial" font-size="14.00">display_name </text>
<text text-anchor="start" x="703.53" y="-132.4" font-family="Arial" font-size="14.00" fill="#666666">[varchar(100)]</text>
<polygon fill="none" stroke="black" points="606.26,-89.4 606.26,-120.2 856.03,-120.2 856.03,-89.4 606.26,-89.4"/>
<text text-anchor="start" x="613.26" y="-101.6" font-family="Arial" font-size="14.00">created_at </text>
<text text-anchor="start" x="683.31" y="-101.6" font-family="Arial" font-size="14.00" fill="#666666">[timestamp with time zone]</text>
</g>
<!-- public.reactions&#45;&gt;public.users -->
<g id="edge2" class="edge">
<title>public.reactions:user_id&#45;&gt;public.users:id</title>
<path fill="none" stroke="black" d="M679.73,-496.48C806.27,-487.98 613.85,-313.59 606.26,-291.4 592.7,-251.79 563.39,-197.2 605.26,-197.2"/>
<polygon fill="black" stroke="black" points="679.95,-496.47 669.81,-492.29 674.62,-496.64 670.29,-496.78 670.29,-496.78 670.29,-496.78 674.62,-496.64 670.1,-501.29 679.95,-496.47"/>
<text text-anchor="start" x="676.62" y="-506.8" font-family="Arial" font-size="10.00">FOREIGN KEY (user_id) REFERENCES users(id)</text>
</g>
</g>
</svg>
