<?xml version="1.0" encoding="UTF-8" standalone="no"?>
<!DOCTYPE svg PUBLIC "-//W3C//DTD SVG 1.1//EN"
 "http://www.w3.org/Graphics/SVG/1.1/DTD/svg11.dtd">
<!-- Generated by graphviz version 12.1.2 (20240928.0832)
 -->
<!-- Title: public.push_subscriptions Pages: 1 -->
<svg width="619pt" height="602pt"
 viewBox="0.00 0.00 618.57 602.00" xmlns="http://www.w3.org/2000/svg" xmlns:xlink="http://www.w3.org/1999/xlink">
<g id="graph0" class="graph" transform="scale(1 1) rotate(0) translate(4 598)">
<title>public.push_subscriptions</title>
<polygon fill="white" stroke="none" points="-4,4 -4,-598 614.57,-598 614.57,4 -4,4"/>
<!-- public.push_subscriptions -->
<g id="node1" class="node">
<title>public.push_subscriptions</title>
<polygon fill="#efefef" stroke="none" points="46.2,-512.2 46.2,-547.8 372.19,-547.8 372.19,-512.2 46.2,-512.2"/>
<polygon fill="none" stroke="black" points="46.2,-512.2 46.2,-547.8 372.19,-547.8 372.19,-512.2 46.2,-512.2"/>
<text text-anchor="start" x="53.2" y="-525.6" font-family="Arial Bold" font-size="18.00">public.push_subscriptions</text>
<text text-anchor="start" x="240.7" y="-525.6" font-family="Arial" font-size="14.00">    </text>
<text text-anchor="start" x="271.81" y="-525.6" font-family="Arial" font-size="14.00" fill="#666666">[BASE TABLE]</text>
<polygon fill="none" stroke="black" points="46.2,-481.4 46.2,-512.2 372.19,-512.2 372.19,-481.4 46.2,-481.4"/>
<text text-anchor="start" x="53.2" y="-493.6" font-family="Arial" font-size="14.00">id </text>
<text text-anchor="start" x="67.99" y="-493.6" font-family="Arial" font-size="14.00" fill="#666666">[uuid]</text>
<polygon fill="none" stroke="black" points="46.2,-450.6 46.2,-481.4 372.19,-481.4 372.19,-450.6 46.2,-450.6"/>
<text text-anchor="start" x="53.2" y="-462.8" font-family="Arial" font-size="14.00">user_id </text>
<text text-anchor="start" x="103.01" y="-462.8" font-family="Arial" font-size="14.00" fill="#666666">[varchar(255)]</text>
<polygon fill="none" stroke="black" points="46.2,-419.8 46.2,-450.6 372.19,-450.6 372.19,-419.8 46.2,-419.8"/>
<text text-anchor="start" x="53.2" y="-432" font-family="Arial" font-size="14.00">endpoint </text>
<text text-anchor="start" x="110.81" y="-432" font-family="Arial" font-size="14.00" fill="#666666">[text]</text>
<polygon fill="none" stroke="black" points="46.2,-389 46.2,-419.8 372.19,-419.8 372.19,-389 46.2,-389"/>
<text text-anchor="start" x="53.2" y="-401.2" font-family="Arial" font-size="14.00">p256dh </text>
<text text-anchor="start" x="103.81" y="-401.2" font-family="Arial" font-size="14.00" fill="#666666">[text]</text>
<polygon fill="none" stroke="black" points="46.2,-358.2 46.2,-389 372.19,-389 372.19,-358.2 46.2,-358.2"/>
<text text-anchor="start" x="53.2" y="-370.4" font-family="Arial" font-size="14.00">auth </text>
<text text-anchor="start" x="84.34" y="-370.4" font-family="Arial" font-size="14.00" fill="#666666">[text]</text>
<polygon fill="none" stroke="black" points="46.2,-327.4 46.2,-358.2 372.19,-358.2 372.19,-327.4 46.2,-327.4"/>
<text text-anchor="start" x="53.2" y="-339.6" font-family="Arial" font-size="14.00">created_at </text>
<text text-anchor="start" x="123.25" y="-339.6" font-family="Arial" font-size="14.00" fill="#666666">[timestamp with time zone]</text>
<polygon fill="none" stroke="black" stroke-width="3" points="44.7,-325.9 44.7,-549.3 373.69,-549.3 373.69,-325.9 44.7,-325.9"/>
</g>
<!-- public.users -->
<g id="node2" class="node">
<title>public.users</title>
<polygon fill="#efefef" stroke="none" points="84.31,-166.4 84.31,-202 334.08,-202 334.08,-166.4 84.31,-166.4"/>
<polygon fill="none" stroke="black" points="84.31,-166.4 84.31,-202 334.08,-202 334.08,-166.4 84.31,-166.4"/>
<text text-anchor="start" x="103.71" y="-179.8" font-family="Arial Bold" font-size="18.00">public.users</text>
<text text-anchor="start" x="190.19" y="-179.8" font-family="Arial" font-size="14.00">    </text>
<text text-anchor="start" x="221.31" y="-179.8" font-family="Arial" font-size="14.00" fill="#666666">[BASE TABLE]</text>
<polygon fill="none" stroke="black" points="84.31,-135.6 84.31,-166.4 334.08,-166.4 334.08,-135.6 84.31,-135.6"/>
<text text-anchor="start" x="91.31" y="-147.8" font-family="Arial" font-size="14.00">id </text>
<text text-anchor="start" x="106.09" y="-147.8" font-family="Arial" font-size="14.00" fill="#666666">[varchar(255)]</text>
<polygon fill="none" stroke="black" points="84.31,-104.8 84.31,-135.6 334.08,-135.6 334.08,-104.8 84.31,-104.8"/>
<text text-anchor="start" x="91.31" y="-117" font-family="Arial" font-size="14.00">email </text>
<text text-anchor="start" x="128.65" y="-117" font-family="Arial" font-size="14.00" fill="#666666">[varchar(255)]</text>
<polygon fill="none" stroke="black" points="84.31,-74 84.31,-104.8 334.08,-104.8 334.08,-74 84.31,-74"/>
<text text-anchor="start" x="91.31" y="-86.2" font-family="Arial" font-size="14.00">display_name </text>
<text text-anchor="start" x="181.58" y="-86.2" font-family="Arial" font-size="14.00" fill="#666666">[varchar(100)]</text>
<polygon fill="none" stroke="black" points="84.31,-43.2 84.31,-74 334.08,-74 334.08,-43.2 84.31,-43.2"/>
<text text-anchor="start" x="91.31" y="-55.4" font-family="Arial" font-size="14.00">created_at </text>
<text text-anchor="start" x="161.36" y="-55.4" font-family="Arial" font-size="14.00" fill="#666666">[timestamp with time zone]</text>
</g>
<!-- public.push_subscriptions&#45;&gt;public.users -->
<g id="edge1" class="edge">
<title>public.push_subscriptions:user_id&#45;&gt;public.users:id</title>
<path fill="none" stroke="black" d="M383.1,-463.65C439.74,-434.82 402.01,-151 335.08,-151"/>
<polygon fill="black" stroke="black" points="383.24,-463.61 372.47,-461.54 378.05,-464.84 373.84,-465.85 373.84,-465.85 373.84,-465.85 378.05,-464.84 374.55,-470.3 383.24,-463.61"/>
<text text-anchor="start" x="380.19" y="-476" font-family="Arial" font-size="10.00">FOREIGN KEY (user_id) REFERENCES users(id)</text>
</g>
</g>
</svg>
